<?xml version="1.0" encoding="UTF-8"?>
<svg width="100pt" height="100pt" version="1.1" viewBox="0 0 100 100" xmlns="http://www.w3.org/2000/svg">
 <path d="m49.023 52.691c2.0312-1.7656 3.3203-4.3594 3.3203-7.2578 0-5.3125-4.3203-9.6328-9.6328-9.6328s-9.6328 4.3203-9.6328 9.6328c0 2.8945 1.2891 5.4922 3.3203 7.2578-5.1758 2.3945-8.7852 7.6289-8.7852 13.695 0 1.293 1.0508 2.3438 2.3438 2.3438h25.508c1.293 0 2.3438-1.0508 2.3438-2.3438 0-6.0664-3.6055-11.297-8.7852-13.695zm-6.3125-12.199c2.7266 0 4.9453 2.2188 4.9453 4.9453s-2.2188 4.9453-4.9453 4.9453c-2.7266 0-4.9453-2.2188-4.9453-4.9453 0-2.7305 2.2188-4.9453 4.9453-4.9453zm-10.145 23.555c1.0664-4.6172 5.2109-8.0664 10.145-8.0664 4.9336 0 9.0781 3.4492 10.145 8.0664z"/>
 <path d="m77.438 31.266h-18.828c-1.293 0-2.3438 1.0508-2.3438 2.3438s1.0508 2.3438 2.3438 2.3438h18.828c1.293 0 2.3438-1.0508 2.3438-2.3438s-1.0508-2.3438-2.3438-2.3438z"/>
 <path d="m76.156 41.992h-18.828c-1.293 0-2.3438 1.0508-2.3438 2.3438 0 1.293 1.0508 2.3438 2.3438 2.3438h18.828c1.293 0 2.3438-1.0508 2.3438-2.3438 0-1.293-1.0469-2.3438-2.3438-2.3438z"/>
 <path d="m51.414 7.7656c-23.289 0-42.238 18.945-42.238 42.234 0 7.0508 1.7734 14 5.1328 20.172l-7.7812 18.824c-0.34375 0.82812-0.18359 1.7734 0.41016 2.4453 0.45312 0.51172 1.0938 0.79297 1.7578 0.79297 0.20703 0 0.41406-0.027344 0.61719-0.082031l20.781-5.6914c6.4531 3.7812 13.801 5.7734 21.316 5.7734 23.289 0 42.234-18.945 42.234-42.234 0.003907-23.289-18.941-42.234-42.23-42.234zm0 79.781c-6.9883 0-13.812-1.9375-19.734-5.6055-0.375-0.23047-0.80078-0.35156-1.2344-0.35156-0.20703 0-0.41406 0.027344-0.61719 0.082031l-17.137 4.6953 6.3906-15.457c0.27734-0.67578 0.22656-1.4414-0.14062-2.0742-3.3203-5.707-5.0781-12.223-5.0781-18.836 0-20.703 16.844-37.547 37.551-37.547 20.703 0 37.547 16.844 37.547 37.547s-16.844 37.547-37.547 37.547z"/>
</svg>
