<?xml version="1.0" encoding="UTF-8"?>
<svg width="100pt" height="100pt" version="1.1" viewBox="0 0 100 100" xmlns="http://www.w3.org/2000/svg">
 <path d="m50 6.25c-0.86328 0-1.5625 0.69922-1.5625 1.5625v37.5c0 0.86328 0.69922 1.5625 1.5625 1.5625s1.5625-0.69922 1.5625-1.5625v-37.5c0-0.41406-0.16406-0.8125-0.45703-1.1055s-0.69141-0.45703-1.1055-0.45703z"/>
 <path d="m50 53.125c-0.86328 0-1.5625 0.69922-1.5625 1.5625v37.5c0 0.86328 0.69922 1.5625 1.5625 1.5625s1.5625-0.69922 1.5625-1.5625v-37.5c0-0.41406-0.16406-0.8125-0.45703-1.1055s-0.69141-0.45703-1.1055-0.45703z"/>
 <path d="m53.125 50c0 0.41406 0.16406 0.8125 0.45703 1.1055s0.69141 0.45703 1.1055 0.45703h37.5c0.86328 0 1.5625-0.69922 1.5625-1.5625s-0.69922-1.5625-1.5625-1.5625h-37.5c-0.86328 0-1.5625 0.69922-1.5625 1.5625z"/>
 <path d="m45.312 48.438h-37.5c-0.86328 0-1.5625 0.69922-1.5625 1.5625s0.69922 1.5625 1.5625 1.5625h37.5c0.86328 0 1.5625-0.69922 1.5625-1.5625s-0.69922-1.5625-1.5625-1.5625z"/>
 <path d="m54.352 68.75c0.29297 0.29297 0.69141 0.45703 1.1055 0.45703 0.41406 0 0.8125-0.16406 1.1055-0.45703l12.188-12.188c0.60938-0.60938 0.60938-1.6016 0-2.2109-0.60938-0.60937-1.6016-0.60937-2.2109 0l-12.188 12.156c-0.30469 0.29297-0.47266 0.69922-0.47266 1.1211s0.16797 0.82812 0.47266 1.1211z"/>
 <path d="m55.469 60.336c0.41406 0 0.80859-0.16797 1.1016-0.46094l3.3125-3.3125c0.60938-0.60938 0.60938-1.6016 0-2.2109-0.60937-0.60937-1.6016-0.60937-2.2109 0l-3.3125 3.3125c-0.44922 0.44531-0.58594 1.1211-0.34375 1.707 0.24609 0.58594 0.81641 0.96875 1.4531 0.96484z"/>
 <path d="m54.352 77.555c0.29297 0.29297 0.69141 0.45703 1.1055 0.45703 0.41406 0 0.8125-0.16406 1.1055-0.45703l20.992-20.992c0.60937-0.60938 0.60937-1.6016 0-2.2109-0.60938-0.60937-1.6016-0.60937-2.2109 0l-20.992 20.992c-0.29297 0.29297-0.45703 0.69141-0.45703 1.1055 0 0.41406 0.16406 0.8125 0.45703 1.1055z"/>
 <path d="m86.391 56.562c0.60938-0.60938 0.60938-1.6016 0-2.2109-0.60938-0.60937-1.6016-0.60937-2.2109 0l-29.828 29.828c-0.60937 0.60937-0.60937 1.6016 0 2.2109 0.60938 0.60938 1.6016 0.60938 2.2109 0z"/>
 <path d="m91.367 56.008-35.359 35.359c-0.60937 0.60937-0.60937 1.6016 0 2.2109 0.60938 0.60938 1.6016 0.60938 2.2109 0l35.352-35.352c0.60938-0.60937 0.60938-1.6016 0-2.2109-0.60937-0.60938-1.6016-0.60938-2.2109 0z"/>
 <path d="m89.656 65.352-24.305 24.305c-0.60937 0.60938-0.60937 1.6016 0 2.2109 0.60938 0.60937 1.6016 0.60937 2.2109 0l24.305-24.305c0.60937-0.60938 0.60937-1.6016 0-2.2109-0.60938-0.60937-1.6016-0.60937-2.2109 0z"/>
 <path d="m50 0c-13.262 0-25.98 5.2695-35.355 14.645s-14.645 22.094-14.645 35.355 5.2695 25.98 14.645 35.355 22.094 14.645 35.355 14.645 25.98-5.2695 35.355-14.645 14.645-22.094 14.645-35.355c-0.015625-13.258-5.2852-25.965-14.66-35.34s-22.082-14.645-35.34-14.66zm0 96.875c-12.434 0-24.355-4.9375-33.145-13.73-8.793-8.7891-13.73-20.711-13.73-33.145s4.9375-24.355 13.73-33.145c8.7891-8.793 20.711-13.73 33.145-13.73s24.355 4.9375 33.145 13.73c8.793 8.7891 13.73 20.711 13.73 33.145-0.015625 12.426-4.957 24.344-13.746 33.129-8.7852 8.7891-20.703 13.73-33.129 13.746z"/>
</svg>
