<?xml version="1.0" encoding="UTF-8"?>
<svg width="100pt" height="100pt" version="1.1" viewBox="0 0 100 100" xmlns="http://www.w3.org/2000/svg">
 <path d="m50 21.117c-0.98047 0-1.7734-0.79297-1.7734-1.7734v-12.57c0-0.98047 0.79297-1.7734 1.7734-1.7734s1.7734 0.79297 1.7734 1.7734v12.57c0 0.98047-0.79297 1.7734-1.7734 1.7734z"/>
 <path d="m57.434 22.883c-0.41797 0-0.83594-0.14453-1.1758-0.44531-0.73437-0.64844-0.80469-1.7695-0.15625-2.5039l8.3203-9.4219c0.64844-0.73438 1.7695-0.80469 2.5078-0.15625 0.73437 0.64844 0.80469 1.7695 0.15625 2.5039l-8.3203 9.4219c-0.35156 0.39844-0.83984 0.60156-1.332 0.60156z"/>
 <path d="m42.566 22.883c-0.49219 0-0.98047-0.20312-1.332-0.60156l-8.3203-9.4219c-0.64844-0.73438-0.57812-1.8555 0.15625-2.5039 0.73438-0.64844 1.8555-0.57812 2.5039 0.15625l8.3203 9.4219c0.64844 0.73438 0.57812 1.8555-0.15625 2.5039-0.33594 0.30078-0.75391 0.44531-1.1719 0.44531z"/>
 <path d="m50 95c-0.98047 0-1.7734-0.79297-1.7734-1.7734v-12.57c0-0.98047 0.79688-1.7734 1.7734-1.7734 0.98047 0 1.7734 0.79688 1.7734 1.7734v12.57c0 0.98047-0.79297 1.7734-1.7734 1.7734z"/>
 <path d="m34.242 90.09c-0.41797 0-0.83594-0.14453-1.1758-0.44531-0.73438-0.64844-0.80469-1.7695-0.15625-2.5039l8.3203-9.4219c0.64844-0.73438 1.7695-0.80469 2.5039-0.15625s0.80469 1.7695 0.15625 2.5039l-8.3203 9.4219c-0.34766 0.39844-0.83594 0.60156-1.3281 0.60156z"/>
 <path d="m65.754 90.09c-0.48828 0-0.98047-0.20312-1.332-0.60156l-8.3203-9.4219c-0.64844-0.73438-0.57812-1.8555 0.15625-2.5039 0.73438-0.64844 1.8555-0.57812 2.5078 0.15625l8.3203 9.4219c0.64844 0.73438 0.57812 1.8555-0.15625 2.5039-0.33594 0.29688-0.75391 0.44531-1.1758 0.44531z"/>
 <path d="m55.961 54.324c-4.6289 0-4.9883-4.7266-4.9883-6.1719 0-1.4492 0.35938-6.1719 4.9883-6.1719h7.1328c0.98047 0 1.7734 0.79297 1.7734 1.7734 0 0.98047-0.79297 1.7734-1.7734 1.7734h-7.1328c-0.50391 0-1.4414 0-1.4414 2.625s0.9375 2.625 1.4414 2.625c0.98047 0 1.7734 0.79297 1.7734 1.7734s-0.79688 1.7734-1.7734 1.7734z"/>
 <path d="m62.48 63.121h-5.9102c-4.6328 0-4.9883-4.7266-4.9883-6.1719 0-1.4492 0.35938-6.1719 4.9883-6.1719h5.9102c0.98047 0 1.7734 0.79297 1.7734 1.7734s-0.79688 1.7734-1.7734 1.7734h-5.9102c-0.50391 0-1.4414 0-1.4414 2.625s0.9375 2.625 1.4414 2.625h5.9102c0.98047 0 1.7734 0.79688 1.7734 1.7734 0.003906 0.98047-0.79297 1.7734-1.7734 1.7734z"/>
 <path d="m73.461 71.254-15.57-0.019531c-3.207 0-5.4453-2.4805-5.4453-6.0391 0-3.7031 1.5898-5.5859 4.7305-5.5859 0.98047 0 1.7734 0.79688 1.7734 1.7734 0 0.98047-0.79688 1.7734-1.7734 1.7734-0.8125 0-1.1797 0-1.1797 2.0352 0 0.58594 0.13672 2.4883 1.8984 2.4883l15.57 0.019531c9.9336 0 17.145-6.457 17.145-15.355 0-8.4648-6.8867-15.352-15.352-15.352l-18.547 0.003906c-0.48828 0-1.3086 0-1.3086 2.4883s0.81641 2.4883 1.3086 2.4883c0.98047 0 1.7734 0.79297 1.7734 1.7734 0 0.98047-0.79688 1.7734-1.7734 1.7734-1.4609 0-4.8555-0.58984-4.8555-6.0391s3.3945-6.0391 4.8555-6.0391h18.547c10.422 0 18.902 8.4805 18.902 18.898-0.003906 10.785-8.9023 18.914-20.699 18.914z"/>
 <path d="m78.68 37.242c-0.39453-0.29688-0.62891-0.73047-0.69141-1.1836-0.50781-0.94531-3.4336-5.6445-10.855-5.6445-4.0742 0-4.7188 4.8242-4.7461 5.0312-0.11719 0.97266-3.6406 0.53906-3.5195-0.43359 0.34766-2.8164 2.5234-8.1445 8.2656-8.1445 10.148 0 13.926 7.0391 14.32 8.2734 0.32422 1.0156-0.12109 1.7734-0.64844 2.1445z"/>
 <path d="m44.039 54.324c-0.98047 0-1.7734-0.79688-1.7734-1.7734 0-0.98047 0.79297-1.7734 1.7734-1.7734 0.50391 0 1.4414 0 1.4414-2.625s-0.9375-2.625-1.4414-2.625h-7.1328c-0.98047 0-1.7734-0.79297-1.7734-1.7734 0-0.98047 0.79688-1.7734 1.7734-1.7734h7.1328c4.6289 0 4.9883 4.7266 4.9883 6.1719 0.003906 1.4492-0.35547 6.1719-4.9883 6.1719z"/>
 <path d="m43.43 63.121h-5.9102c-0.98047 0-1.7734-0.79297-1.7734-1.7734 0-0.98047 0.79297-1.7734 1.7734-1.7734h5.9102c0.50391 0 1.4414 0 1.4414-2.625s-0.9375-2.625-1.4414-2.625h-5.9102c-0.98047 0-1.7734-0.79688-1.7734-1.7734 0-0.98047 0.79297-1.7734 1.7734-1.7734h5.9102c4.6328 0 4.9922 4.7266 4.9922 6.1719 0 1.4492-0.35938 6.1719-4.9922 6.1719z"/>
 <path d="m26.543 71.254c-11.801 0-20.699-8.1289-20.699-18.902 0-10.422 8.4805-18.898 18.902-18.898h18.547c1.4609 0 4.8555 0.58984 4.8555 6.0391 0 5.4492-3.3945 6.0391-4.8555 6.0391-0.98047 0-1.7734-0.79297-1.7734-1.7734 0-0.98047 0.79297-1.7734 1.7734-1.7734 0.48828 0 1.3086 0 1.3086-2.4883 0-2.4883-0.81641-2.4883-1.3086-2.4883l-18.551-0.007812c-8.4648 0-15.352 6.8867-15.352 15.352 0 8.8984 7.2109 15.355 17.148 15.355l15.566-0.019531c1.7656 0 1.8984-1.9062 1.8984-2.4883 0-2.0352-0.37109-2.0352-1.1797-2.0352-0.98047 0-1.7734-0.79297-1.7734-1.7734s0.79297-1.7734 1.7734-1.7734c3.1367 0 4.7305 1.8789 4.7305 5.5859 0 3.5586-2.2383 6.0391-5.4492 6.0391z"/>
 <path d="m19.191 37.281c-0.52344-0.37109-0.96875-1.1289-0.64453-2.1445 0.55469-1.7461 4.6133-8.2734 14.32-8.2734 5.7422 0 7.918 5.3281 8.2695 8.1445 0.12109 0.97266-3.4023 1.4062-3.5234 0.43359 0-0.007812-0.19141-1.4023-0.95312-2.7305-0.89062-1.5508-2.1289-2.3047-3.793-2.3047-7.4219 0-10.348 4.6992-10.859 5.6445-0.058593 0.46094-2.5117 1.4453-2.8164 1.2305z"/>
</svg>
