<?xml version="1.0" encoding="UTF-8"?>
<svg width="100pt" height="100pt" version="1.1" viewBox="0 0 100 100" xmlns="http://www.w3.org/2000/svg">
 <path d="m23.105 28.332h0.96875v6.8789c0 0.80469 0.65234 1.4375 1.4375 1.4375h6.5469v0.96875c0 3.0742 2.5 5.5898 5.5898 5.5898 3.0898 0 5.6055-2.5 5.6055-5.5898l0.003906-0.94922h30.82c0.80469 0 1.4375-0.65234 1.4375-1.4375v-24.941c0-0.80469-0.65234-1.4375-1.4375-1.4375h-7.6211c-0.80469 0-1.4375 0.65234-1.4375 1.4375v2.4258c0 1.4844-1.2109 2.6953-2.7109 2.6953-1.4844 0-2.6953-1.2109-2.6953-2.6953v-2.4258c0-0.80469-0.65234-1.4375-1.4375-1.4375h-14.59l-0.011719-0.98828c0-3.0742-2.5-5.5898-5.5898-5.5898s-5.6055 2.5-5.6055 5.5898v0.96875h-6.832c-0.80469 0-1.4375 0.65234-1.4375 1.4375v6.8789h-0.96875c-3.0742 0-5.5898 2.5-5.5898 5.5898-0.003906 3.0938 2.4648 5.5938 5.5547 5.5938zm28.137-9.7266v-6.8789h5.4531v0.96875c0 3.0742 2.5 5.5898 5.5898 5.5898s5.6055-2.5 5.6055-5.5898l0.003906-0.96875h4.7266v22.047h-21.379v-6.8789c0-0.80469-0.65234-1.4375-1.4375-1.4375h-2.4258c-1.4844 0-2.6953-1.2109-2.6953-2.6953s1.2109-2.6953 2.6953-2.6953h2.4258c0.80078-0.003906 1.4375-0.65625 1.4375-1.4609zm-28.137 1.457h2.4258c0.80469 0 1.4375-0.65234 1.4375-1.4375v-6.8984h6.832c0.80469 0 1.4375-0.65234 1.4375-1.4375v-2.4258c0-1.4844 1.2109-2.6953 2.7109-2.6953 1.4844 0 2.6953 1.2109 2.6953 2.6953v2.4258c0 0.80469 0.65234 1.4375 1.4375 1.4375h6.2422v5.4375h-0.96875c-3.0742 0-5.5898 2.5-5.5898 5.5898s2.5 5.5898 5.5898 5.5898h0.96875v5.4375l-6.5078 0.007812c-0.80469 0-1.4375 0.65234-1.4375 1.4375v2.4258c0 1.4844-1.2109 2.6953-2.7109 2.6953-1.4844 0-2.6953-1.2109-2.6953-2.6953v-2.4258c0-0.80469-0.65234-1.4375-1.4375-1.4375h-6.5664v-6.8789c0-0.80469-0.65234-1.4375-1.4375-1.4375h-2.4258c-1.4844 0-2.6953-1.2109-2.6953-2.6953 0-1.4883 1.2109-2.7148 2.6953-2.7148z"/>
 <path d="m83.863 16.316c0.27344 0.42578 0.74219 0.66797 1.2109 0.66797 0.27344 0 0.54688-0.074219 0.78906-0.22656l5.7266-3.6953c0.66797-0.4375 0.86328-1.332 0.4375-2-0.4375-0.66797-1.332-0.86328-2-0.42578l-5.7266 3.6953c-0.66406 0.42578-0.86328 1.3203-0.4375 1.9844z"/>
 <path d="m81.453 11.789c0.10547 0.015626 0.21094 0.03125 0.30469 0.03125 0.66797 0 1.2734-0.46875 1.4102-1.1367l1.4375-6.668c0.16797-0.78906-0.33203-1.5469-1.1055-1.7109-0.77344-0.16797-1.5469 0.33203-1.7109 1.1055l-1.4375 6.668c-0.16797 0.78516 0.31641 1.543 1.1016 1.7109z"/>
 <path d="m88.711 19.289c-0.77344-0.16797-1.5469 0.33203-1.7109 1.1055-0.16797 0.78906 0.33203 1.5469 1.1055 1.7109l6.668 1.4375c0.10547 0.015625 0.21094 0.03125 0.30469 0.03125 0.66797 0 1.2734-0.46875 1.4102-1.1367 0.16797-0.78906-0.33203-1.5469-1.1055-1.7109z"/>
 <path d="m94.637 10.832c0.27344 0 0.54688-0.074219 0.78906-0.22656l1.6523-1.0625c0.66797-0.4375 0.86328-1.332 0.4375-2-0.4375-0.66797-1.332-0.86328-2-0.42578l-1.6523 1.0625c-0.66797 0.4375-0.86328 1.332-0.4375 2 0.26953 0.42578 0.72656 0.65234 1.2109 0.65234z"/>
 <path d="m96.938 62.41-14.289-20.684c-1.3633-1.9844-4.1055-2.5-6.1055-1.1523l-4.668 3.1523c-0.98438 0.66797-1.6523 1.6836-1.8633 2.8477-0.12109 0.65234-0.074219 1.3047 0.074219 1.9258l-1.5 1.0156-16.668-3.668c-4.5156-1-9.1953 0.45312-12.395 3.7266h-6.8477l-2.8477-1.6055c0.21094-0.66797 0.27344-1.3945 0.13672-2.1055-0.21094-1.168-0.87891-2.1836-1.8633-2.8477l-4.668-3.1523c-1.9844-1.3477-4.7266-0.83203-6.1055 1.1523l-14.266 20.695c-0.66797 0.96875-0.92578 2.1523-0.71094 3.3164 0.22656 1.168 0.87891 2.1836 1.8633 2.8477l4.668 3.1523c0.75781 0.51562 1.6055 0.75781 2.4531 0.75781 1.0156 0 2.0312-0.36328 2.832-1.0312l4.5469 3.2891-1.5742 2.2266c-0.62109 0.89453-0.95312 1.9375-0.95312 3.0312 0 1.7109 0.83203 3.332 2.2266 4.3164 0.81641 0.57422 1.7422 0.89453 2.7109 0.9375-0.089844 0.41016-0.16797 0.81641-0.16797 1.2422 0 1.7109 0.83203 3.332 2.2422 4.3164 0.89453 0.63672 1.9531 0.96875 3.0312 0.96875 0.30469 0 0.60547-0.03125 0.91016-0.074219 0.42578-0.074218 0.83203-0.21094 1.2109-0.37891 0.34766 1.0742 1 2.0312 1.9531 2.6953 0.92578 0.65234 1.9844 0.95312 3.0312 0.95312 0.75781 0 1.5156-0.18359 2.2109-0.5 0.34766 1.0469 1 1.9844 1.9258 2.6523 0.89453 0.63672 1.9375 0.95312 3.0156 0.95312 0.30469 0 0.60547-0.03125 0.91016-0.074218 1.3945-0.24219 2.5898-1.0156 3.4102-2.1523l1.0156-1.4375 4.2578 3.0898c0.89453 0.63672 1.9258 0.9375 2.9531 0.9375 1.6055 0 3.1836-0.74219 4.1836-2.1523 0.45312-0.63672 0.72656-1.3477 0.86328-2.0742l2.5898 1.8477c2.3945 1.7109 5.7422 1.1523 7.5156-1.3047 0.60547-0.84766 0.92578-1.832 0.96875-2.8164 2.0469 0.48438 4.2891-0.28906 5.5742-2.1055 0.03125-0.03125 0.046875-0.074219 0.074219-0.10547 0.77344-1.1523 1.0742-2.5156 0.84766-3.8945-0.089844-0.5625-0.27344-1.0898-0.53125-1.5898 0.98438-0.34766 1.8789-1 2.5312-1.9102 0.80469-1.1211 1.1211-2.4844 0.9375-3.8477l7.7891-5.9375c0.69531 0.41016 1.4688 0.65234 2.2734 0.65234 0.84766 0 1.7109-0.24219 2.4531-0.75781l4.668-3.1523c0.98437-0.66797 1.6523-1.6836 1.8633-2.8477 0.22656-1.1875-0.015625-2.3711-0.69922-3.3398zm-86.438 6.2266-4.668-3.1523c-0.33203-0.22656-0.5625-0.57422-0.63672-0.98438-0.074218-0.39453 0.015626-0.80469 0.24219-1.1523l14.289-20.684c0.28906-0.42578 0.77344-0.65234 1.2578-0.65234 0.28906 0 0.58984 0.074219 0.84766 0.25781l4.668 3.1523c0.33203 0.22656 0.5625 0.57422 0.63672 0.98438 0.074219 0.39453-0.015625 0.80469-0.24219 1.1367l-14.289 20.699c-0.48438 0.68359-1.4219 0.86328-2.1055 0.39453zm8.5742 10.668c0-0.48438 0.15234-0.96875 0.42578-1.3633l3.5312-4.9844c0.36328-0.51562 0.91016-0.86328 1.5312-0.96875 0.13672-0.03125 0.27344-0.03125 0.41016-0.03125 0.48438 0 0.95312 0.15234 1.3633 0.4375 0.63672 0.4375 1.0156 1.168 1.0156 1.9375 0 0.48438-0.15234 0.96875-0.4375 1.3789l-3.5156 5c-0.36328 0.51562-0.91016 0.86328-1.5312 0.96875-0.63672 0.10547-1.2578-0.03125-1.7734-0.41016-0.64062-0.46484-1.0195-1.1953-1.0195-1.9648zm5.8047 8.4375c-0.63672-0.4375-1.0156-1.168-1.0156-1.9531 0-0.48437 0.15234-0.96875 0.4375-1.3633l1.457-2.0781 1.1523-1.6367 3.832-5.4375c0.36328-0.51563 0.91016-0.86328 1.5469-0.96875 0.13672-0.03125 0.27344-0.03125 0.41016-0.03125 0.48438 0 0.95312 0.15234 1.3633 0.4375 0.63672 0.4375 1.0156 1.1836 1.0156 1.9531 0 0.48438-0.15234 0.96875-0.42578 1.3633l-2.2578 3.1953c0 0.015625-0.015625 0.015625-0.015625 0.03125l-3.332 4.7266c0 0.015625-0.015625 0.015625-0.015625 0.03125l-0.83203 1.1836c-0.76172 1.0469-2.2617 1.3047-3.3203 0.54688zm8.8789 3.6055c-0.62109 0.10547-1.2578-0.03125-1.7734-0.39453-0.63672-0.4375-1.0156-1.1836-1.0156-1.9531 0-0.48438 0.15234-0.95312 0.42578-1.3477l3.3477-4.7578c0.46875-0.63672 1.1953-0.98438 1.9375-0.98438 0.46875 0 0.95312 0.13672 1.3633 0.42578 0.62109 0.4375 1 1.168 1 1.9375 0 0.5-0.15234 0.96875-0.42578 1.3789l-3.332 4.7266c-0.35938 0.51562-0.90625 0.86328-1.5273 0.96875zm10.152 0.089844-1.4531 2.0469c-0.36328 0.51562-0.91016 0.86328-1.5469 0.96875-0.62109 0.10547-1.2578-0.03125-1.7734-0.39453-0.65234-0.45312-1.0156-1.168-1.0156-1.9531 0-0.48438 0.15234-0.95312 0.4375-1.3633l1.4375-2.0469c0.36328-0.51562 0.91016-0.86328 1.5469-0.96875 0.13672-0.03125 0.27344-0.03125 0.41016-0.03125 0.48438 0 0.95312 0.15234 1.3477 0.42578 0.63672 0.45312 1.0156 1.1836 1.0156 1.9531 0.015625 0.48828-0.13281 0.95703-0.40625 1.3633zm31.406-11.512c-0.77344 1.0898-2.3164 1.3477-3.4258 0.57422l-12.258-8.6953c-0.65234-0.46875-1.5625-0.30469-2.0156 0.34766-0.45313 0.65234-0.30469 1.5625 0.34766 2.0156l12.273 8.6953 1.5898 1.1211c0.53125 0.37891 0.89453 0.9375 1 1.5898 0.10547 0.65234-0.046875 1.3047-0.42578 1.832-0.015625 0.03125-0.03125 0.046875-0.046875 0.074219-0.80469 1.0469-2.3047 1.2734-3.3789 0.51562l-1.9688-1.4102-11.426-8.1367c-0.65234-0.46875-1.5469-0.31641-2.0156 0.33203-0.46875 0.65234-0.31641 1.5625 0.33203 2.0156l11.41 8.1211c1.0898 0.80469 1.332 2.3047 0.5 3.4688-0.78906 1.1055-2.332 1.3477-3.4375 0.57422l-6.3086-4.4922-7.9258-5.6836c-0.65234-0.46875-1.5625-0.31641-2.0156 0.33203-0.46875 0.65234-0.31641 1.5469 0.33203 2.0156l7.9258 5.668c0.98438 0.71094 1.2109 2.0898 0.51562 3.0742-0.71094 1-2.1055 1.2422-3.0898 0.53125l-4.6836-3.3438c0.0625-0.31641 0.10547-0.65234 0.10547-0.98438 0-1.7109-0.83203-3.3164-2.2422-4.3164-0.91016-0.65234-1.9844-0.95312-3.0898-0.9375 0.015625-0.18359 0.046875-0.36328 0.046875-0.54688 0-1.7109-0.83203-3.332-2.2422-4.3047-0.71094-0.5-1.5312-0.78906-2.3477-0.89453 0.39453-0.74219 0.60547-1.5742 0.60547-2.4258 0-1.7109-0.83203-3.332-2.2266-4.3164-1.1523-0.81641-2.5469-1.1367-3.9375-0.89453-0.72656 0.12109-1.4102 0.41016-2.0156 0.80469-0.37891-0.87891-0.96875-1.668-1.7734-2.2422-1.1523-0.81641-2.5625-1.1367-3.9375-0.87891-1.3789 0.24219-2.5898 1.0156-3.3945 2.1523l-0.28906 0.41016-4.4375-3.2109 0.16797-0.22656 12.273-17.758 3.2109 1.8047c0.21094 0.12109 0.45312 0.18359 0.71094 0.18359h4.8477l-6.332 8.1523c-0.45312 0.57422-0.69531 1.2891-0.69531 2.0156 0 1.0898 0.53125 2.0898 1.4102 2.6953 3.5625 2.4531 8.4102 1.8633 11.273-1.3789l4.3477-4.9258c0.58984-0.66797 1.5898-0.81641 2.3477-0.34766l6.6953 4.7266 0.03125 0.03125 12.047 8.4844 6.4531 4.5469c0.18359 0.12109 0.33203 0.27344 0.46875 0.4375 0.046875 0.046875 0.074219 0.089843 0.12109 0.15234 0.12109 0.16797 0.22656 0.36328 0.30469 0.5625 0.046875 0.13672 0.089844 0.28906 0.12109 0.4375 0.11328 0.65625-0.054688 1.3086-0.43359 1.8555zm2.1094-4.8945c-0.03125-0.046875-0.074219-0.0625-0.12109-0.10547-0.27344-0.30469-0.57422-0.58984-0.91016-0.83203l-13.668-9.6367c1.4258-0.39453 2.7422-1.1953 3.7734-2.3789 0.53125-0.60547 0.45312-1.5156-0.13672-2.0469-0.60547-0.51562-1.5156-0.45312-2.0469 0.13672-1.6211 1.8633-4.3789 2.2266-6.4375 0.86328l-6.5-4.5898-0.12109-0.089844c-0.015624-0.015624-0.046874-0.03125-0.089843-0.0625l-0.36328-0.22656c-0.19531-0.13672-0.41016-0.19531-0.63672-0.22656-0.53125-0.18359-1.0625-0.28906-1.6211-0.28906-1.332 0-2.6523 0.54688-3.5625 1.5898l-4.3477 4.9102c-1.8945 2.1523-5.1055 2.5469-7.4688 0.91016-0.15234-0.089843-0.15234-0.25781-0.15234-0.30469 0-0.0625 0.015625-0.15234 0.089844-0.24219l7.7422-9.9531c0.12109-0.15234 0.24219-0.30469 0.37891-0.45312 2.5-2.8633 6.3789-4.1211 10.09-3.3164l17.273 3.7891c0.39453 0.089844 0.78906 0.015626 1.1211-0.21094l1.8164-1.2266 12.883 18.656zm16.742-8.8477-4.668 3.1523c-0.68359 0.46875-1.6367 0.28906-2.1055-0.39453l-14.289-20.684c-0.22656-0.33203-0.31641-0.74219-0.24219-1.1523 0.074219-0.41016 0.30469-0.74219 0.63672-0.98438l4.668-3.1523c0.25781-0.18359 0.5625-0.25781 0.84766-0.25781 0.48438 0 0.95312 0.22656 1.2578 0.65234l14.289 20.684c0.22656 0.33203 0.31641 0.74219 0.24219 1.1367-0.078126 0.42188-0.30469 0.76953-0.63672 1z"/>
</svg>
