<?xml version="1.0" encoding="UTF-8"?>
<svg width="100pt" height="100pt" version="1.1" viewBox="0 0 100 100" xmlns="http://www.w3.org/2000/svg">
 <path d="m82.812 54.688h-7.8125c-1.7188 0-3.125 1.4062-3.125 3.125v2.3438c0 3.0156-2.4531 5.4688-5.4688 5.4688s-5.4688-2.4531-5.4688-5.4688v-2.3438c0-1.7188-1.4062-3.125-3.125-3.125h-12.5v-14.062h2.3438c3.875 0 7.0312-3.1562 7.0312-7.0312s-3.1562-7.0312-7.0312-7.0312h-2.3438v-9.375c0-2.5781-2.1094-4.6875-4.6875-4.6875h-32.812c-2.5781 0-4.6875 2.1094-4.6875 4.6875v75c0 2.5781 2.1094 4.6875 4.6875 4.6875h75c2.5781 0 4.6875-2.1094 4.6875-4.6875v-32.812c0-2.5781-2.1094-4.6875-4.6875-4.6875zm-75-39.062h32.812c0.85938 0 1.5625 0.70312 1.5625 1.5625v10.938c0 0.85938 0.70312 1.5625 1.5625 1.5625h3.9062c2.1562 0 3.9062 1.75 3.9062 3.9062s-1.75 3.9062-3.9062 3.9062h-3.9062c-0.85938 0-1.5625 0.70312-1.5625 1.5625v15.625h-9.375v-3.9062c0-4.7344-3.8594-8.5938-8.5938-8.5938s-8.5938 3.8594-8.5938 8.5938v3.9062h-9.375v-37.5c0-0.85938 0.70312-1.5625 1.5625-1.5625zm-1.5625 76.562v-34.375h9.375c1.7188 0 3.125-1.4062 3.125-3.125v-3.9062c0-3.0156 2.4531-5.4688 5.4688-5.4688s5.4688 2.4531 5.4688 5.4688v3.9062c0 1.7188 1.4062 3.125 3.125 3.125h9.375v9.375h-3.9062c-4.7344 0-8.5938 3.8594-8.5938 8.5938s3.8594 8.5938 8.5938 8.5938h3.9062v9.375h-34.375c-0.85938 0-1.5625-0.70312-1.5625-1.5625zm78.125 0c0 0.85938-0.70312 1.5625-1.5625 1.5625h-37.5v-9.375c0-1.7188-1.4062-3.125-3.125-3.125h-3.9062c-3.0156 0-5.4688-2.4531-5.4688-5.4688s2.4531-5.4688 5.4688-5.4688h3.9062c1.7188 0 3.125-1.4062 3.125-3.125v-9.375h12.5v2.3438c0 4.7344 3.8594 8.5938 8.5938 8.5938s8.5938-3.8594 8.5938-8.5938v-2.3438h7.8125c0.85938 0 1.5625 0.70312 1.5625 1.5625z"/>
 <path d="m96.75 36-8.9688-30.641c-0.23438-0.8125-0.76562-1.4688-1.5-1.8594-0.71875-0.39062-1.5469-0.48438-2.3281-0.25l-30.188 9.1094c-1.625 0.48438-2.5625 2.2344-2.0781 3.875l2.4375 8.3125c0.21875 0.75 0.70312 1.3594 1.3906 1.7188 0.67188 0.375 1.4531 0.45312 2.2031 0.23438 1.4688-0.45312 3.0156-0.29688 4.375 0.4375 1.375 0.75 2.375 2 2.8281 3.5156 0.90625 3.1094-0.84375 6.3906-3.9062 7.3125-1.5312 0.45312-2.4219 2.0781-1.9688 3.6094l1.6094 5.5c0.23438 0.8125 0.76562 1.4688 1.5 1.8594 0.71875 0.39062 1.5469 0.48438 2.3281 0.25l9.5469-2.875 0.82812 2.8125c0.4375 1.5156 1.4375 2.7656 2.8125 3.5 0.85938 0.46875 1.7812 0.70312 2.7344 0.70312 0.54688 0 1.1094-0.078125 1.6406-0.25 3.0625-0.92188 4.8125-4.2031 3.9062-7.2969l-0.82812-2.8281 9.5469-2.875c1.625-0.48438 2.5625-2.2344 2.0781-3.875z"/>
</svg>
