<?xml version="1.0" encoding="UTF-8"?>
<svg width="1200pt" height="1200pt" version="1.1" viewBox="0 0 1200 1200" xmlns="http://www.w3.org/2000/svg">
 <path d="m170.48 679.74c0-9.5156 7.7344-17.203 17.203-17.203h23.859c9.5156 0 17.203 7.7344 17.203 17.203 0 9.5156-7.7344 17.203-17.203 17.203h-23.859c-9.5156 0-17.203-7.6875-17.203-17.203zm17.203-48.375h23.859c9.5156 0 17.203-7.7344 17.203-17.203 0-9.5156-7.7344-17.203-17.203-17.203h-23.859c-9.5156 0-17.203 7.7344-17.203 17.203s7.6875 17.203 17.203 17.203zm348.52-147.71 143.72-143.29 141.42 70.5c7.1719 3.5625 15.609 1.6875 20.625-4.0781l127.69-127.36v34.594c0 9.5156 7.7344 17.203 17.203 17.203 9.5156 0 17.203-7.7344 17.203-17.203v-76.031c0-9.5156-7.7344-17.203-17.203-17.203h-76.031c-9.5156 0-17.203 7.7344-17.203 17.203 0 9.5156 7.7344 17.203 17.203 17.203l34.5 0.046876-119.62 119.3-141.47-70.5c-6.4219-3.1875-14.391-2.1094-19.781 3.1875l-152.44 152.11c-6.7031 6.7031-6.75 17.578-0.046876 24.281 6.6562 6.7031 17.531 6.7031 24.234 0.046875zm-139.36-135h82.875c-7.875-67.172-61.125-120.42-128.29-128.29v82.875c22.031 6 39.422 23.391 45.422 45.422zm-209.16 413.86h23.859c9.5156 0 17.203-7.7344 17.203-17.203 0-9.5156-7.7344-17.203-17.203-17.203h-23.859c-9.5156 0-17.203 7.7344-17.203 17.203 0 9.5156 7.6875 17.203 17.203 17.203zm129.32-459.28v-82.875c-67.172 7.875-120.42 61.125-128.29 128.29h82.875c6-22.031 23.344-39.375 45.422-45.422zm83.625 293.68h-137.72c-9.5156 0-17.203 7.7344-17.203 17.203 0 9.5156 7.7344 17.203 17.203 17.203h137.72c9.5156 0 17.203-7.7344 17.203-17.203 0-9.5156-7.6875-17.203-17.203-17.203zm0 65.625h-137.72c-9.5156 0-17.203 7.7344-17.203 17.203 0 9.5156 7.7344 17.203 17.203 17.203h137.72c9.5156 0 17.203-7.7344 17.203-17.203 0-9.5156-7.6875-17.203-17.203-17.203zm-66.422-150.14c34.266 0 65.766-11.766 90.703-31.453l-58.594-58.594c-9.4688 5.3906-20.438 8.4844-32.109 8.4844-29.906 0-55.125-20.203-62.625-47.766h-82.875c8.5312 72.844 70.406 129.32 145.5 129.32zm66.422 215.72h-137.72c-9.5156 0-17.203 7.7344-17.203 17.203 0 9.5156 7.7344 17.203 17.203 17.203h137.72c9.5156 0 17.203-7.7344 17.203-17.203 0-9.5156-7.6875-17.203-17.203-17.203zm767.53-600v711.98c0 29.016-23.766 52.781-52.781 52.781h-1030.8c-29.016 0-52.781-23.766-52.781-52.781v-711.98c0-29.016 23.766-52.781 52.781-52.781h1030.8c29.062 0 52.781 23.766 52.781 52.781zm-69.562 16.781h-997.22v678.42h997.22zm-639.94 782.44-42.422 86.297h367.45l-42.375-86.297zm-61.828-544.26c-1.4531 5.25-3.5156 10.266-6.1875 14.906l58.594 58.594c16.359-20.719 27.234-45.938 30.422-73.5zm533.68 388.87h101.91v-414.74h-101.91zm-152.44 0h101.91v-262.69h-101.91zm-304.92 0h101.91v-186.71h-101.91zm152.48 0h101.91v-338.72h-101.91zm264.19 276.1h-579.66c-21.094 0-38.344 17.25-38.344 38.344s17.25 38.344 38.344 38.344l579.66-0.046874c21.094 0 38.344-17.25 38.344-38.344 0-21.047-17.25-38.297-38.344-38.297z"/>
</svg>
