<?xml version="1.0" encoding="UTF-8"?>
<svg width="1200pt" height="1200pt" version="1.1" viewBox="0 0 1200 1200" xmlns="http://www.w3.org/2000/svg">
 <path d="m114.75 357.1c-4.5 3.375-7.5 8.8594-7.5 15v101.72c0 10.359 8.25 18.75 18.75 18.75h41.25v511.97h-41.25c-10.5 0-18.75 8.4375-18.75 18.75v101.72c0 10.359 8.25 18.75 18.75 18.75h948c10.5 0 18.75-8.3906 18.75-18.75v-101.72c0-10.312-8.25-18.75-18.75-18.75h-41.625v-511.97h41.625c10.5 0 18.75-8.3906 18.75-18.75v-101.72c0-6.7969-3.75-12.75-9-16.031l-474-296.95c-6.375-3.7969-13.875-3.7969-19.875 0l-474 296.76c-0.375 0.28125-0.75 0.70312-1.125 1.2188zm940.5 684.94v64.219h-910.5v-64.219zm-850.5-549.47v511.97h790.13v-511.97zm206.63 114.47v283.03c0 15.094 8.625 30.469 27 43.031 30.375 20.625 91.125 35.672 161.63 35.672 70.125 0 131.26-15.047 161.26-35.672 18.75-12.562 27.375-27.938 27.375-43.031v-283.03c0-15.094-8.625-30.469-27.375-43.031-30-20.625-91.125-35.672-161.26-35.672-70.5 0-131.26 15.047-161.63 35.672-18.375 12.562-27 27.938-27 43.031zm339.74 237.94c-32.625 17.344-88.125 29.438-151.13 29.438-63.004 0-118.5-12.094-151.13-29.438v45.094c0 2.25 1.5 4.0781 3.375 6.0938 4.5 4.5469 10.875 8.625 18.75 12.422 29.25 14.016 76.125 22.688 129 22.688s99.75-8.6719 129-22.688c7.875-3.7969 14.25-7.875 18.375-12.422 1.875-2.0156 3.75-3.8438 3.75-6.0938zm-302.26-94.359v45.094c0 2.25 1.5 4.0781 3.375 6.0938 4.5 4.5469 10.875 8.625 18.75 12.422 29.25 14.016 76.125 22.688 129 22.688s99.75-8.6719 129-22.688c7.875-3.7969 14.25-7.875 18.375-12.422 1.875-2.0156 3.75-3.8438 3.75-6.0938v-45.094c-3.375 1.7344-6.75 3.4219-10.125 5.0156-33 14.719-84 24.469-141 24.469-63 0-118.5-12.094-151.13-29.484zm302.26-94.312c-32.625 17.344-88.125 29.438-151.13 29.438-63.004 0-118.5-12.094-151.13-29.438v45.094c0 2.2031 1.5 4.0781 3.375 6.0469 4.5 4.5938 10.875 8.625 18.75 12.469 29.25 13.969 76.125 22.688 129 22.688 51 0 96.375-8.1094 125.63-21.188 9-4.0312 16.125-8.3906 21.375-13.312 2.25-2.25 4.125-4.2188 4.125-6.7031zm-151.13-90.469c52.875 0 99.75 8.7188 129 22.688 7.875 3.8438 14.25 7.875 18.375 12.469 1.875 1.9688 3.75 3.7969 3.75 6.0469s-1.875 4.0781-3.75 6.0469c-4.125 4.5938-10.5 8.6719-18.375 12.469-29.25 13.969-76.125 22.688-129 22.688s-99.75-8.7188-129-22.688c-7.875-3.7969-14.25-7.875-18.75-12.469-1.875-1.9688-3.375-3.7969-3.375-6.0469s1.5-4.0781 3.375-6.0469c4.5-4.5938 10.875-8.625 18.75-12.469 29.25-13.969 76.125-22.688 129-22.688zm455.26-174.98v64.219h-910.5v-64.219zm-864.74-37.5h818.26l-409.13-256.22z" fill-rule="evenodd"/>
</svg>
