<?xml version="1.0" encoding="UTF-8"?>
<svg width="1200pt" height="1200pt" version="1.1" viewBox="0 0 1200 1200" xmlns="http://www.w3.org/2000/svg">
 <path d="m995.39 334.6v-212.72h-790.78v212.72h34.875v35.156h-34.875v212.68h34.875v35.156h-34.875v212.68h34.875v35.156l-34.875 0.046875v212.68h790.78v-212.68h-34.875v-35.156h34.875v-212.72h-34.875v-35.156h34.875v-212.68h-34.875v-35.156zm-772.03-193.97h753.28v175.22h-228.71c-21-63.938-80.672-107.16-147.94-107.16-67.262 0-126.94 43.219-147.94 107.16h-228.71zm622.55 351v415.74c0 6.2344-5.0156 11.297-11.25 11.297h-469.31c-6.2344 0-11.25-5.0625-11.25-11.297v-415.74c0-6.1875 5.0156-11.25 11.25-11.25h469.31c6.2344 0 11.25 5.0625 11.25 11.25zm-113.81-163.87c3.4219 12.047 5.2031 24.469 5.25 36.984v96.844l-41.672 0.046874v-96.891c-0.09375-15.281-3.8906-30.375-11.109-43.875-16.219-31.781-48.891-51.797-84.562-51.797s-68.344 20.016-84.562 51.797c-7.2188 13.5-11.016 28.594-11.109 43.875v96.844l-41.672 0.046874v-96.891c0.046875-12.516 1.8281-24.938 5.25-36.984 16.5-59.297 70.547-100.31 132.1-100.31s115.59 41.016 132.1 100.31zm-209.02 36.984c0.09375-10.406 2.3906-20.672 6.7031-30.141h140.44c4.3125 9.4688 6.6094 19.734 6.7031 30.141v4.9688l-153.84 0.046874zm18.281-48.938v0.046874c14.297-17.719 35.859-28.031 58.641-28.031s44.344 10.312 58.641 28.031zm-18.281 72.703h153.84v73.125h-153.84zm-264.84-53.906h189.1c-2.1094 9.8906-3.2812 20.016-3.4219 30.141v4.9688l-185.68 0.046874zm-34.875 53.906h220.55v73.125h-78.562c-16.547 0-30 13.453-30 30v72.047h-111.98zm34.875 193.92h77.062v35.156h-77.062zm-34.875 53.906h111.94v175.18l-111.94 0.046875zm34.875 193.92h77.062v35.156l-77.062 0.046876zm718.4 229.13h-753.28v-175.18h111.94v23.203l0.046875-0.046874c0 16.594 13.453 30.047 30 30.047h469.31c16.547 0 30-13.453 30-30.047v-23.156h111.94zm-34.875-193.92h-77.109v-35.156h77.062zm34.875-53.906-111.98-0.046875v-78.188h11.062v-18.75h-11.062v-78.188h111.94zm-34.875-193.97h-77.109v-35.156h77.062zm34.875-53.906h-111.98v-72.047c0-3.8438-0.75-7.6875-2.25-11.25h13.312v-18.75h-119.62v-73.125h220.55zm-34.875-193.92h-185.68v-5.0156c-0.14063-10.125-1.3125-20.25-3.4219-30.188h189.1zm-341.76 182.44c-37.359-0.09375-69.562 26.297-76.828 62.906-7.3125 36.656 12.328 73.312 46.875 87.516v112.55c0 16.547 13.406 29.953 29.953 29.953s29.953-13.406 29.953-29.953v-112.55c34.547-14.203 54.188-50.859 46.875-87.516-7.2656-36.609-39.469-63-76.828-62.906zm17.766 134.9-6.5625 2.0625v126c0 6.1875-5.0156 11.203-11.203 11.203s-11.203-5.0156-11.203-11.203v-126l-6.5625-2.0625c-28.078-8.7656-45.562-36.75-41.156-65.859 4.4531-29.109 29.484-50.625 58.922-50.625s54.469 21.516 58.922 50.625c4.4062 29.109-13.078 57.094-41.156 65.859zm295.45 300.52h-18.75v-18.75h18.75zm-56.25-18.75h18.75v18.75h-18.75zm-37.5 0h18.75v18.75h-18.75zm93.75-235.55h-18.75v-18.75h18.75zm0-252.94h-18.75v-18.75h18.75zm0-242.76h-18.75v-18.75h18.75zm-37.5 0h-18.75v-18.75h18.75zm-37.5 0h-18.75v-18.75h18.75z"/>
</svg>
