<?xml version="1.0" encoding="UTF-8"?>
<svg width="1200pt" height="1200pt" version="1.1" viewBox="0 0 1200 1200" xmlns="http://www.w3.org/2000/svg">
 <path d="m1071.4 764.75c-14.781 0.042968-29.09 5.2227-40.473 14.652-11.383 9.4258-19.137 22.52-21.93 37.035h-10.078c-8.75 0.003906-17.145-3.457-23.344-9.6289-6.1992-6.1719-9.6992-14.551-9.7305-23.301v-32.508c0-15.117-5.9961-29.613-16.672-40.312-10.676-10.699-25.164-16.727-40.277-16.758l-88.801 0.12109v-0.003906c17.223-30.703 27.773-64.695 30.961-99.754l168.86-0.13281c4.0156 20.934 18.242 38.469 37.898 46.715s42.137 6.1094 59.887-5.6953c17.75-11.801 28.418-31.703 28.418-53.02s-10.668-41.219-28.418-53.02c-17.75-11.805-40.23-13.941-59.887-5.6953s-33.883 25.781-37.898 46.715l-167.72 0.13281h-0.003907c-0.14062-34.402-7.3672-68.402-21.227-99.891l77.879-0.10938v0.003907c15.094-0.015625 29.566-6.0195 40.242-16.691 10.676-10.672 16.68-25.145 16.699-40.238v-32.555c0.011719-8.7656 3.5-17.172 9.6992-23.367 6.2031-6.1992 14.605-9.6836 23.371-9.6953h10.082c4.0156 20.91 18.23 38.422 37.863 46.652 19.633 8.2344 42.086 6.0977 59.812-5.6914 17.727-11.789 28.383-31.668 28.383-52.961 0-21.289-10.656-41.168-28.383-52.957-17.727-11.789-40.18-13.926-59.812-5.6914-19.633 8.2305-33.848 25.742-37.863 46.648h-10.094c-15.129 0.019531-29.633 6.0352-40.332 16.73-10.699 10.699-16.719 25.203-16.738 40.332v32.508c-0.011719 8.7344-3.4883 17.105-9.668 23.277-6.1758 6.1719-14.551 9.6445-23.285 9.6484l-90 0.13281c-3.8047-6.6367-7.8594-13.105-12.227-19.344v-115.63c-0.046875-30.941-7.0977-61.473-20.629-89.301 1.6914-3.3867 1.6289-7.3789-0.16797-10.711-1.7969-3.3281-5.1016-5.5742-8.8555-6.0195-23.168-38.809-58.434-68.945-100.38-85.773s-88.266-19.418-131.83-7.3789c-43.566 12.043-81.977 38.051-109.33 74.035-27.355 35.984-42.141 79.949-42.086 125.15v115.68c-4.3555 6.2266-8.3984 12.684-12.191 19.309h-90c-8.7695-0.007813-17.176-3.4961-23.375-9.6953-6.1992-6.1992-9.6875-14.605-9.6953-23.375v-32.402c0-15.113-5.9922-29.609-16.664-40.312-10.672-10.699-25.152-16.73-40.266-16.77h-10.152c-4.0156-20.934-18.242-38.469-37.898-46.715-19.66-8.2461-42.137-6.1094-59.887 5.6953-17.75 11.801-28.418 31.703-28.418 53.02 0 21.316 10.668 41.219 28.418 53.02 17.75 11.805 40.227 13.941 59.887 5.6953 19.656-8.2461 33.883-25.781 37.898-46.715h10.141c8.75 0.03125 17.129 3.5312 23.305 9.7344 6.1719 6.2031 9.6328 14.598 9.6211 23.348v32.402c0.015626 15.137 6.0391 29.648 16.742 40.352 10.707 10.703 25.219 16.719 40.355 16.73h77.82c-13.816 31.457-21.008 65.414-21.133 99.77h-167.76c-4.0195-20.938-18.246-38.477-37.906-46.727-19.664-8.2461-42.145-6.1094-59.898 5.6953-17.754 11.805-28.426 31.711-28.426 53.031 0 21.32 10.672 41.227 28.426 53.031 17.754 11.805 40.234 13.941 59.898 5.6953 19.66-8.25 33.887-25.789 37.906-46.727h168.86c3.1719 35.113 13.73 69.164 30.984 99.91h-88.801c-15.137 0.023437-29.645 6.0508-40.34 16.762-10.695 10.707-16.707 25.223-16.707 40.359v32.402c-0.015625 8.7266-3.4883 17.094-9.6602 23.27-6.1719 6.1719-14.539 9.6445-23.27 9.6562h-10.141c-4.0156-20.938-18.246-38.477-37.906-46.727-19.66-8.2461-42.145-6.1094-59.898 5.6953-17.754 11.805-28.422 31.711-28.422 53.031 0 21.32 10.668 41.227 28.422 53.031 17.754 11.805 40.238 13.941 59.898 5.6953 19.66-8.25 33.891-25.789 37.906-46.727h10.152c15.09-0.019532 29.559-6.0234 40.23-16.695 10.668-10.672 16.672-25.141 16.688-40.23v-32.402c0.007813-8.7656 3.4961-17.176 9.6953-23.375s14.605-9.6875 23.375-9.6953h104.21c18.609 25.879 41.93 48.02 68.738 65.266v74.605c0.003907 8.75-3.457 17.141-9.6289 23.34-6.1719 6.2031-14.551 9.6992-23.301 9.7305h-32.496c-15.129 0.019532-29.637 6.0391-40.336 16.738-10.699 10.699-16.715 25.203-16.734 40.336v10.055c-20.945 4.0195-38.488 18.25-46.738 37.914-8.25 19.664-6.1133 42.152 5.6953 59.91 11.809 17.758 31.719 28.43 53.043 28.43 21.324 0 41.234-10.672 53.039-28.43 11.809-17.758 13.945-40.246 5.6953-59.91-8.25-19.664-25.793-33.895-46.734-37.914v-10.043c0.007812-8.7695 3.4961-17.176 9.6953-23.375s14.605-9.6875 23.375-9.6953h32.496c15.113-0.035157 29.598-6.0664 40.27-16.77 10.676-10.703 16.664-25.203 16.66-40.316v-61.105c31.094 15.469 65.074 24.293 99.766 25.91v146.25c-20.949 4.0195-38.5 18.254-46.754 37.926-8.2578 19.672-6.1172 42.168 5.6914 59.934 11.812 17.766 31.73 28.441 53.062 28.441 21.336 0 41.254-10.676 53.062-28.441 11.812-17.766 13.949-40.262 5.6953-59.934-8.2539-19.672-25.805-33.906-46.758-37.926v-146.24c34.742-1.582 68.77-10.395 99.914-25.871v61.199c0.039062 15.109 6.0664 29.59 16.766 40.262 10.699 10.672 25.195 16.664 40.305 16.664h32.496c8.75 0.035157 17.129 3.5312 23.301 9.7305s9.6328 14.594 9.6289 23.344v10.043c-20.941 4.0195-38.48 18.246-46.727 37.906s-6.1094 42.145 5.6953 59.898c11.805 17.754 31.711 28.422 53.031 28.422 21.32 0 41.227-10.668 53.031-28.422 11.805-17.754 13.941-40.238 5.6914-59.898-8.2461-19.66-25.785-33.887-46.723-37.906v-10.043c0-15.113-5.9961-29.605-16.668-40.305-10.672-10.699-25.148-16.73-40.262-16.77h-32.496c-8.7461 0.007813-17.141-3.4531-23.34-9.625-6.1992-6.1758-9.6992-14.555-9.7305-23.301v-74.75c26.848-17.258 50.199-39.426 68.832-65.34l104.26-0.13281-0.003906 0.003906c8.7539 0.023438 17.137 3.5195 23.312 9.7227 6.1758 6.1992 9.6367 14.598 9.6289 23.348v32.508c0.039063 15.113 6.0664 29.59 16.766 40.262 10.699 10.672 25.195 16.668 40.305 16.668h10.094c3.0703 15.871 12.074 29.98 25.18 39.453 13.102 9.4766 29.32 13.602 45.359 11.543 16.035-2.0586 30.688-10.148 40.973-22.621 10.285-12.477 15.434-28.402 14.398-44.539-1.0352-16.137-8.1797-31.27-19.977-42.328-11.797-11.055-27.363-17.203-43.535-17.195zm0-468.61v0.003907c10.516 0.003906 20.602 4.1836 28.039 11.621 7.4336 7.4414 11.609 17.527 11.605 28.047 0 10.516-4.1797 20.602-11.617 28.039-7.4414 7.4375-17.527 11.613-28.047 11.613-10.516-0.003906-20.602-4.1797-28.039-11.617s-11.613-17.527-11.613-28.043c0.011719-10.516 4.1953-20.602 11.633-28.035 7.4375-7.4336 17.52-11.617 28.039-11.625zm-942.87 79.469c-10.52-0.003906-20.609-4.1875-28.043-11.633-7.4375-7.4414-11.609-17.535-11.602-28.059 0.003906-10.52 4.1953-20.605 11.641-28.039s17.539-11.602 28.062-11.59c10.52 0.011719 20.605 4.2031 28.035 11.652 7.4297 7.4492 11.598 17.547 11.578 28.066-0.027343 10.508-4.2188 20.574-11.652 27.996-7.4375 7.4219-17.512 11.594-28.02 11.605zm0 492.62v-0.003906c-10.52 0-20.609-4.1875-28.043-11.629-7.4375-7.4453-11.609-17.535-11.602-28.059 0.003906-10.52 4.1953-20.609 11.641-28.039 7.4453-7.4336 17.539-11.605 28.062-11.594 10.52 0.011718 20.605 4.207 28.035 11.656 7.4297 7.4492 11.598 17.543 11.578 28.066-0.03125 10.504-4.2227 20.566-11.656 27.988-7.4375 7.418-17.512 11.59-28.016 11.598zm264.78 152.4c0 10.516-4.1797 20.605-11.617 28.043s-17.523 11.617-28.043 11.617-20.605-4.1797-28.043-11.617-11.617-17.527-11.617-28.043c0-10.52 4.1797-20.605 11.617-28.043 7.4375-7.4414 17.523-11.617 28.043-11.617 10.508 0.011718 20.582 4.1875 28.02 11.617 7.4336 7.4258 11.617 17.496 11.641 28.008zm492.62 0c-0.015625 10.496-4.1992 20.555-11.629 27.969-7.4258 7.4141-17.496 11.574-27.992 11.57-10.496-0.003906-20.559-4.1758-27.98-11.598s-11.594-17.488-11.598-27.984c-0.007813-10.492 4.1562-20.562 11.57-27.992 7.4141-7.4297 17.473-11.609 27.969-11.625 10.508 0.007812 20.586 4.1836 28.02 11.613 7.4336 7.4258 11.621 17.5 11.641 28.012zm196.43-478.23c10.5 0 20.57 4.1719 27.996 11.594 7.4258 7.4219 11.602 17.488 11.605 27.988s-4.1602 20.57-11.578 28c-7.418 7.4297-17.484 11.609-27.98 11.621-10.5 0.007813-20.574-4.1484-28.008-11.566-7.4336-7.4141-11.617-17.477-11.633-27.977 0.011719-10.504 4.1875-20.574 11.609-28.008 7.4219-7.4336 17.484-11.621 27.988-11.652zm-665.05-231c0.39062-48.18 19.805-94.254 54.012-128.19 34.211-33.93 80.441-52.969 128.62-52.969 48.184 0 94.414 19.039 128.62 52.969 34.211 33.934 53.625 80.008 54.016 128.19v86.402c-9.9961-10.512-20.879-20.148-32.52-28.801v-57.602c-0.47656-53.309-29.195-102.37-75.445-128.89-46.246-26.52-103.09-26.52-149.34 0s-74.965 75.578-75.441 128.89v57.602c-11.641 8.6562-22.52 18.293-32.52 28.801zm308.75 41.734 0.003906 0.003907c-38.273-22.352-81.797-34.129-126.12-34.129-44.316 0-87.84 11.777-126.11 34.129v-41.738c0.4375-44.762 24.57-85.938 63.41-108.2s86.57-22.258 125.41 0 62.973 63.434 63.41 108.2zm-608.4 268.8v0.003906c-10.512 0.015625-20.605-4.1445-28.051-11.566-7.4492-7.4219-11.645-17.496-11.668-28.012-0.023437-10.516 4.1328-20.605 11.547-28.059 7.418-7.4531 17.492-11.656 28.004-11.684 10.516-0.03125 20.609 4.1172 28.066 11.531 7.457 7.4102 11.668 17.48 11.703 27.996v0.10938c-0.015625 10.508-4.1992 20.578-11.625 28.012-7.4297 7.4336-17.504 11.617-28.012 11.633zm522 409.6c0.015626 10.508-4.1367 20.594-11.551 28.039-7.4141 7.4453-17.477 11.648-27.984 11.68-10.508 0.035156-20.598-4.1055-28.059-11.504-7.457-7.4023-11.676-17.461-11.727-27.969-0.046875-10.504 4.0742-20.602 11.461-28.074 7.3906-7.4727 17.441-11.703 27.949-11.77h0.13281 0.21484c10.473 0.046875 20.508 4.2305 27.91 11.641 7.4023 7.4102 11.578 17.445 11.617 27.922zm-39.695-232.12c-60.523 0-118.57-24.039-161.36-66.836s-66.84-100.84-66.84-161.36c0-60.523 24.039-118.57 66.836-161.36 42.793-42.797 100.84-66.84 161.36-66.844 60.523 0 118.57 24.039 161.37 66.832 42.797 42.793 66.84 100.84 66.844 161.36-0.066406 60.504-24.129 118.51-66.91 161.3-42.781 42.781-100.79 66.852-161.29 66.918zm471.43 68.652c-10.527 0.015625-20.629-4.1523-28.078-11.586-7.4492-7.4336-11.637-17.527-11.645-28.051-0.003907-10.527 4.1758-20.621 11.617-28.066 7.4414-7.4414 17.539-11.621 28.062-11.613 10.527 0.003906 20.617 4.1914 28.055 11.641 7.4336 7.4531 11.602 17.551 11.586 28.078-0.027344 10.492-4.2109 20.551-11.629 27.969-7.4219 7.4219-17.477 11.602-27.969 11.629z"/>
 <path d="m600 528.56c-13.844-0.12109-26.883 6.5-34.949 17.754-8.0625 11.254-10.145 25.73-5.5781 38.801 4.5664 13.07 15.207 23.102 28.527 26.883v22.477c0 6.625 5.3711 12 12 12s12-5.375 12-12v-22.477c13.25-3.8398 23.812-13.863 28.34-26.895s2.4492-27.445-5.5664-38.672c-8.0156-11.223-20.98-17.863-34.773-17.809zm0 61.309c-4.9492 0-9.6953-1.9648-13.191-5.4648-3.5-3.4961-5.4688-8.2422-5.4688-13.191 0-4.9453 1.9648-9.6914 5.4609-13.191 3.5-3.5 8.2422-5.4688 13.191-5.4727 4.9492 0 9.6953 1.9609 13.195 5.4609 3.5 3.4961 5.4688 8.2383 5.4727 13.188-0.003906 4.9492-1.9688 9.6953-5.4688 13.195-3.4961 3.5-8.2422 5.4727-13.191 5.4766z"/>
 <path d="m600 403.8c-33.113 0-65.484 9.8203-93.02 28.219-27.531 18.395-48.992 44.547-61.664 75.141-12.668 30.594-15.984 64.258-9.5234 96.734 6.4648 32.48 22.41 62.312 45.828 85.723 23.418 23.414 53.254 39.359 85.73 45.816 32.48 6.457 66.145 3.1406 96.734-9.5352 30.594-12.676 56.738-34.141 75.133-61.676s28.211-59.91 28.207-93.023c-0.058593-44.383-17.719-86.934-49.105-118.31-31.383-31.383-73.938-49.035-118.32-49.086zm0 310.8c-38.039 0-74.52-15.113-101.42-42.012-26.898-26.898-42.008-63.383-42.008-101.42 0.003906-38.039 15.117-74.52 42.02-101.42 26.898-26.895 63.383-42.004 101.42-41.996 38.039 0.003906 74.52 15.117 101.41 42.02 26.895 26.902 42 63.387 41.996 101.43-0.035156 38.031-15.16 74.492-42.047 101.38-26.891 26.891-63.352 42.016-101.38 42.055z"/>
</svg>
