<?xml version="1.0" encoding="UTF-8"?>
<svg width="1200pt" height="1200pt" version="1.1" viewBox="0 0 1200 1200" xmlns="http://www.w3.org/2000/svg">
 <path d="m1152 600c0 155.29-126.37 281.63-281.63 281.63-155.29 0-281.63-126.37-281.63-281.63 0-69.234-27-134.29-75.844-183.24-48.938-48.938-114-75.844-183.24-75.844-142.97 0-259.13 116.16-259.13 259.08s116.3 259.08 259.08 259.08c74.859 0 144-31.219 193.08-86.297l-48.938 2.3906c-6.2344 0.23438-11.531-4.4531-11.766-10.688-0.375-6.2344 4.4531-11.531 10.688-11.766l74.156-3.7031c3-0.14062 5.8594 0.84375 8.1562 2.8594 2.1562 2.0625 3.6094 4.7812 3.7031 7.7812l3.7031 74.156c0.375 6.2344-4.4531 11.531-10.688 11.766-6.2344 0.375-11.531-4.4531-11.766-10.688l-2.2969-45c-53.062 57.844-128.86 91.688-207.94 91.688-155.34 0.046875-281.72-126.28-281.72-281.58 0-155.3 126.37-281.63 281.63-281.63 75.234 0 145.92 29.297 199.22 82.453 53.156 53.156 82.453 123.94 82.453 199.22 0 142.92 116.3 259.08 259.08 259.08 142.92 0 259.08-116.3 259.08-259.08 0-142.78-116.3-259.08-259.08-259.08-73.547 0-144 31.781-192.84 86.062l48.609-2.7656c6.2344-0.375 11.531 4.4531 11.859 10.547 0.375 6.2344-4.4531 11.531-10.547 11.859l-74.062 4.3125c-6.2344 0.375-11.531-4.4531-11.859-10.547l-4.3125-74.062c-0.375-6.2344 4.4531-11.531 10.547-11.859 6.2344-0.375 11.531 4.4531 11.859 10.547l2.625 45.375c53.062-58.078 129-91.922 208.22-91.922 155.16-0.14062 281.53 126.19 281.53 281.48zm-419.29-40.078c2.8594-10.078 6.9375-19.781 12-29.062l-10.312-14.859c-5.625-8.0625-4.6875-19.078 2.2969-26.062l23.625-23.625c6.9375-6.9375 17.859-7.9219 26.062-2.3906l14.859 10.312c9.2344-5.0625 18.938-9.1406 29.062-12l3.2344-17.859c1.7812-9.7031 10.219-16.688 20.062-16.688h33.469c9.8438 0 18.234 7.0781 20.062 16.688l3.2344 17.859c10.078 2.8594 19.781 6.9375 29.062 12l14.859-10.312c8.0625-5.625 19.078-4.6875 26.062 2.2969l23.625 23.625c6.9375 6.9375 7.9219 17.859 2.3906 26.062l-10.359 15.094c5.0625 9.2344 9.1406 18.938 12 29.062l17.859 3.2344c9.7031 1.7812 16.688 10.219 16.688 20.062v33.469c0 9.8438-7.0781 18.234-16.688 20.062l-17.859 3.1875c-2.8594 10.078-6.9375 19.781-12 29.062l10.312 14.859c5.625 8.1562 4.6875 19.078-2.3906 26.062l-23.625 23.625c-6.9375 6.9375-17.859 7.9219-26.062 2.3906l-14.859-10.312c-9.2344 5.0625-18.938 9.1406-29.062 12l-3.2344 17.766c-1.7812 9.7031-10.219 16.688-20.062 16.688h-33.469c-9.8438 0-18.234-7.0781-20.062-16.688l-3.2344-17.859c-10.078-2.8594-19.781-6.9375-29.062-12l-14.859 10.312c-8.1562 5.625-19.078 4.6875-26.062-2.3906l-23.625-23.625c-6.9375-6.9375-7.9219-17.859-2.3906-26.062l10.312-14.859c-5.0625-9.2344-9.1406-18.938-12-29.062l-17.859-3.2344c-9.7031-1.7812-16.688-10.219-16.688-20.062l0.046875-33.469c0-9.8438 7.0781-18.234 16.688-20.062zm5.2969 21.938-17.391 3.1406v29.859l17.391 3.1406c7.6875 1.4531 13.781 6.9375 15.938 14.531 2.625 9.2344 6.2344 18.141 11.062 26.531 3.8438 6.8438 3.4688 15.141-0.9375 21.609l-10.078 14.531 21.141 21.141 14.531-10.078c6.4688-4.4531 14.766-4.9219 21.609-0.9375 8.3906 4.6875 17.297 8.3906 26.531 11.062 7.5469 2.1562 13.219 8.2969 14.531 15.938l3.1406 17.391h29.859l3.1406-17.391c1.4531-7.6875 6.9375-13.781 14.531-15.938 9.2344-2.625 18.141-6.2344 26.531-11.062 6.8438-3.8438 15.141-3.4688 21.609 0.9375l14.531 10.078 21.141-21.141-10.078-14.531c-4.4531-6.4688-4.9219-14.766-0.9375-21.609 4.6875-8.3906 8.3906-17.297 11.062-26.531 2.1562-7.5469 8.2969-13.219 15.938-14.531l17.391-3.1406v-29.859l-17.391-3.1406c-7.6875-1.4531-13.781-6.9375-15.938-14.531-2.625-9.2344-6.2344-18.141-11.062-26.531-3.8438-6.8438-3.4688-15.141 0.9375-21.609l10.078-14.531-21.141-21.141-14.531 10.078c-6.4688 4.4531-14.766 4.9219-21.609 0.9375-8.3906-4.6875-17.297-8.3906-26.531-11.062-7.5469-2.1562-13.219-8.2969-14.531-15.938l-3.1406-17.391h-29.859l-3.1406 17.391c-1.4531 7.6875-6.9375 13.781-14.531 15.938-9.2344 2.625-18.141 6.2344-26.531 11.062-6.8438 3.8438-15.141 3.4688-21.609-0.9375l-14.531-10.078-21.141 21.141 10.078 14.531c4.4531 6.4688 4.9219 14.766 0.9375 21.609-4.6875 8.3906-8.3906 17.297-11.062 26.531-2.0156 7.5938-8.1562 13.125-15.938 14.531zm51.234 18.141c0-44.766 36.375-81.141 81.141-81.141s81.141 36.375 81.141 81.141-36.375 81.141-81.141 81.141-81.141-36.375-81.141-81.141zm22.547 0c0 32.297 26.297 58.547 58.547 58.547 32.297 0 58.547-26.297 58.547-58.547 0-32.297-26.297-58.547-58.547-58.547s-58.547 26.25-58.547 58.547zm-344.48 40.078c-2.8594 10.078-6.9375 19.781-12 29.062l10.312 14.859c5.625 8.1562 4.6875 19.078-2.3906 26.062l-23.625 23.625c-6.9375 6.9375-17.859 7.9219-26.062 2.3906l-14.859-10.312c-9.2344 5.0625-18.938 9.1406-29.062 12l-3.2344 17.766c-1.7812 9.7031-10.219 16.688-20.062 16.688h-33.469c-9.8438 0-18.234-7.0781-20.062-16.688l-3.2344-17.859c-10.078-2.8594-19.781-6.9375-29.062-12l-14.859 10.312c-8.0625 5.625-19.078 4.6875-26.062-2.3906l-23.625-23.625c-6.9375-6.9375-7.9219-17.859-2.3906-26.062l10.453-14.906c-5.0625-9.2344-9.1406-18.938-12-29.062l-17.859-3.2344c-9.7031-1.7812-16.688-10.219-16.688-20.062v-33.422c0-9.8438 7.0781-18.234 16.688-20.062l17.859-3.2344c2.8594-10.078 6.9375-19.781 12-29.062l-10.312-14.859c-5.625-8.0625-4.6875-19.078 2.2969-26.062l23.625-23.625c6.9375-6.9375 17.859-7.9219 26.062-2.3906l14.859 10.312c9.2344-5.0625 18.938-9.1406 29.062-12l3.2344-17.859c1.7812-9.7031 10.219-16.688 20.062-16.688h33.469c9.8438 0 18.234 7.0781 20.062 16.688l3.2344 17.859c10.078 2.8594 19.781 6.9375 29.062 12l14.859-10.312c8.0625-5.625 19.078-4.6875 26.062 2.2969l23.625 23.625c6.9375 6.9375 7.9219 17.859 2.3906 26.062l-10.312 14.859c5.0625 9.2344 9.1406 18.938 12 29.062l17.859 3.2344c9.7031 1.7812 16.688 10.219 16.688 20.062v33.469c0 9.8438-7.0781 18.234-16.688 20.062zm-5.2969-21.938 17.391-3.1406v-29.859l-17.391-3.1406c-7.6875-1.4531-13.781-6.9375-15.938-14.531-2.625-9.2344-6.2344-18.141-11.062-26.531-3.8438-6.8438-3.4688-15.141 0.9375-21.609l10.078-14.531-21.141-21.141-14.531 10.078c-6.4688 4.4531-14.766 4.9219-21.609 0.9375-8.3906-4.6875-17.297-8.3906-26.531-11.062-7.5469-2.1562-13.219-8.2969-14.531-15.938l-3.1406-17.391h-29.859l-3.1406 17.391c-1.4531 7.6875-6.9375 13.781-14.531 15.938-9.2344 2.625-18.141 6.2344-26.531 11.062-6.8438 3.8438-15.141 3.4688-21.609-0.9375l-14.531-10.078-21.141 21.141 10.078 14.531c4.4531 6.4688 4.9219 14.766 0.9375 21.609-4.6875 8.3906-8.3906 17.297-11.062 26.531-2.1562 7.5469-8.2969 13.219-15.938 14.531l-17.391 3.1406v29.859l17.391 3.1406c7.6875 1.4531 13.781 6.9375 15.938 14.531 2.625 9.2344 6.2344 18.141 11.062 26.531 3.8438 6.8438 3.4688 15.141-0.9375 21.609l-10.078 14.531 21.141 21.141 14.531-10.078c6.4688-4.4531 14.766-4.9219 21.609-0.9375 8.3906 4.6875 17.297 8.3906 26.531 11.062 7.5469 2.1562 13.219 8.2969 14.531 15.938l3.1406 17.391h29.859l3.1406-17.391c1.4531-7.6875 6.9375-13.781 14.531-15.938 9.2344-2.625 18.141-6.2344 26.531-11.062 6.8438-3.8438 15.141-3.4688 21.609 0.9375l14.531 10.078 21.141-21.141-10.078-14.531c-4.4531-6.4688-4.9219-14.766-0.9375-21.609 4.6875-8.3906 8.3906-17.297 11.062-26.531 2.0156-7.5938 8.1562-13.125 15.938-14.531zm-51.234-18.141c0 44.766-36.375 81.141-81.141 81.141s-81.141-36.375-81.141-81.141 36.375-81.141 81.141-81.141c44.672 0 81.141 36.375 81.141 81.141zm-22.547 0c0-32.297-26.297-58.547-58.547-58.547-32.297 0-58.547 26.297-58.547 58.547 0 32.297 26.297 58.547 58.547 58.547s58.547-26.25 58.547-58.547z"/>
</svg>
