<?xml version="1.0" encoding="UTF-8"?>
<svg width="1200pt" height="1200pt" version="1.1" viewBox="0 0 1200 1200" xmlns="http://www.w3.org/2000/svg">
 <path d="m215.62 609.38c5.1758 0 9.375-4.1992 9.375-9.375s-4.1992-9.375-9.375-9.375h-18.75v-18.75c0-5.1758-4.1992-9.375-9.375-9.375s-9.375 4.1992-9.375 9.375v18.75h-18.75c-5.1758 0-9.375 4.1992-9.375 9.375s4.1992 9.375 9.375 9.375h18.75v18.75c0 5.1758 4.1992 9.375 9.375 9.375s9.375-4.1992 9.375-9.375v-18.75z"/>
 <path d="m243.75 431.25c2.4883 0 4.8711-0.98828 6.6289-2.7461 1.7578-1.7578 2.7461-4.1406 2.7461-6.6289v-18.75h18.75c5.1758 0 9.375-4.1992 9.375-9.375s-4.1992-9.375-9.375-9.375h-18.75v-18.75c0-5.1758-4.1992-9.375-9.375-9.375s-9.375 4.1992-9.375 9.375v18.75h-18.75c-5.1758 0-9.375 4.1992-9.375 9.375s4.1992 9.375 9.375 9.375h18.75v18.75c0 2.4883 0.98828 4.8711 2.7461 6.6289 1.7578 1.7578 4.1406 2.7461 6.6289 2.7461z"/>
 <path d="m393.75 206.25c-5.1758 0-9.375 4.1992-9.375 9.375v18.75h-18.75c-5.1758 0-9.375 4.1992-9.375 9.375s4.1992 9.375 9.375 9.375h18.75v18.75c0 5.1758 4.1992 9.375 9.375 9.375s9.375-4.1992 9.375-9.375v-18.75h18.75c5.1758 0 9.375-4.1992 9.375-9.375s-4.1992-9.375-9.375-9.375h-18.75v-18.75c0-2.4883-0.98828-4.8711-2.7461-6.6289-1.7578-1.7578-4.1406-2.7461-6.6289-2.7461z"/>
 <path d="m1012.5 637.5c2.4883 0 4.8711-0.98828 6.6289-2.7461 1.7578-1.7578 2.7461-4.1406 2.7461-6.6289v-18.75h18.75c5.1758 0 9.375-4.1992 9.375-9.375s-4.1992-9.375-9.375-9.375h-18.75v-18.75c0-5.1758-4.1992-9.375-9.375-9.375s-9.375 4.1992-9.375 9.375v18.75h-18.75c-5.1758 0-9.375 4.1992-9.375 9.375s4.1992 9.375 9.375 9.375h18.75v18.75c0 2.4883 0.98828 4.8711 2.7461 6.6289 1.7578 1.7578 4.1406 2.7461 6.6289 2.7461z"/>
 <path d="m600 1050c2.4883 0 4.8711-0.98828 6.6289-2.7461 1.7578-1.7578 2.7461-4.1406 2.7461-6.6289v-18.75h18.75c5.1758 0 9.375-4.1992 9.375-9.375s-4.1992-9.375-9.375-9.375h-18.75v-18.75c0-5.1758-4.1992-9.375-9.375-9.375s-9.375 4.1992-9.375 9.375v18.75h-18.75c-5.1758 0-9.375 4.1992-9.375 9.375s4.1992 9.375 9.375 9.375h18.75v18.75c0 2.4883 0.98828 4.8711 2.7461 6.6289 1.7578 1.7578 4.1406 2.7461 6.6289 2.7461z"/>
 <path d="m806.25 993.75c2.4883 0 4.8711-0.98828 6.6289-2.7461 1.7578-1.7578 2.7461-4.1406 2.7461-6.6289v-18.75h18.75c5.1758 0 9.375-4.1992 9.375-9.375s-4.1992-9.375-9.375-9.375h-18.75v-18.75c0-5.1758-4.1992-9.375-9.375-9.375s-9.375 4.1992-9.375 9.375v18.75h-18.75c-5.1758 0-9.375 4.1992-9.375 9.375s4.1992 9.375 9.375 9.375h18.75v18.75c0 2.4883 0.98828 4.8711 2.7461 6.6289 1.7578 1.7578 4.1406 2.7461 6.6289 2.7461z"/>
 <path d="m956.25 843.75c2.4883 0 4.8711-0.98828 6.6289-2.7461 1.7578-1.7578 2.7461-4.1406 2.7461-6.6289v-18.75h18.75c5.1758 0 9.375-4.1992 9.375-9.375s-4.1992-9.375-9.375-9.375h-18.75v-18.75c0-5.1758-4.1992-9.375-9.375-9.375s-9.375 4.1992-9.375 9.375v18.75h-18.75c-5.1758 0-9.375 4.1992-9.375 9.375s4.1992 9.375 9.375 9.375h18.75v18.75c0 2.4883 0.98828 4.8711 2.7461 6.6289 1.7578 1.7578 4.1406 2.7461 6.6289 2.7461z"/>
 <path d="m393.75 993.75c2.4883 0 4.8711-0.98828 6.6289-2.7461 1.7578-1.7578 2.7461-4.1406 2.7461-6.6289v-18.75h18.75c5.1758 0 9.375-4.1992 9.375-9.375s-4.1992-9.375-9.375-9.375h-18.75v-18.75c0-5.1758-4.1992-9.375-9.375-9.375s-9.375 4.1992-9.375 9.375v18.75h-18.75c-5.1758 0-9.375 4.1992-9.375 9.375s4.1992 9.375 9.375 9.375h18.75v18.75c0 2.4883 0.98828 4.8711 2.7461 6.6289 1.7578 1.7578 4.1406 2.7461 6.6289 2.7461z"/>
 <path d="m253.12 834.38v-18.75h18.75c5.1758 0 9.375-4.1992 9.375-9.375s-4.1992-9.375-9.375-9.375h-18.75v-18.75c0-5.1758-4.1992-9.375-9.375-9.375s-9.375 4.1992-9.375 9.375v18.75h-18.75c-5.1758 0-9.375 4.1992-9.375 9.375s4.1992 9.375 9.375 9.375h18.75v18.75c0 5.1758 4.1992 9.375 9.375 9.375s9.375-4.1992 9.375-9.375z"/>
 <path d="m956.25 356.25c-5.1758 0-9.375 4.1992-9.375 9.375v18.75h-18.75c-5.1758 0-9.375 4.1992-9.375 9.375s4.1992 9.375 9.375 9.375h18.75v18.75c0 5.1758 4.1992 9.375 9.375 9.375s9.375-4.1992 9.375-9.375v-18.75h18.75c5.1758 0 9.375-4.1992 9.375-9.375s-4.1992-9.375-9.375-9.375h-18.75v-18.75c0-2.4883-0.98828-4.8711-2.7461-6.6289-1.7578-1.7578-4.1406-2.7461-6.6289-2.7461z"/>
 <path d="m834.38 234.38h-18.75v-18.75c0-5.1758-4.1992-9.375-9.375-9.375s-9.375 4.1992-9.375 9.375v18.75h-18.75c-5.1758 0-9.375 4.1992-9.375 9.375s4.1992 9.375 9.375 9.375h18.75v18.75c0 5.1758 4.1992 9.375 9.375 9.375s9.375-4.1992 9.375-9.375v-18.75h18.75c5.1758 0 9.375-4.1992 9.375-9.375s-4.1992-9.375-9.375-9.375z"/>
 <path d="m600 150c-5.1758 0-9.375 4.1992-9.375 9.375v18.75h-18.75c-5.1758 0-9.375 4.1992-9.375 9.375s4.1992 9.375 9.375 9.375h18.75v18.75c0 5.1758 4.1992 9.375 9.375 9.375s9.375-4.1992 9.375-9.375v-18.75h18.75c5.1758 0 9.375-4.1992 9.375-9.375s-4.1992-9.375-9.375-9.375h-18.75v-18.75c0-2.4883-0.98828-4.8711-2.7461-6.6289-1.7578-1.7578-4.1406-2.7461-6.6289-2.7461z"/>
 <path d="m787.5 759.38v-131.25c-0.011719-28.168-14.078-54.477-37.5-70.125v-33c0-53.59-28.59-103.11-75-129.9-46.41-26.797-103.59-26.797-150 0-46.41 26.793-75 76.312-75 129.9v33c-23.422 15.648-37.488 41.957-37.5 70.125v131.25c0 22.379 8.8906 43.84 24.711 59.664 15.824 15.82 37.285 24.711 59.664 24.711h206.25c22.379 0 43.84-8.8906 59.664-24.711 15.82-15.824 24.711-37.285 24.711-59.664zm-318.75-234.38c0-46.891 25.016-90.219 65.625-113.66 40.609-23.449 90.641-23.449 131.25 0 40.609 23.445 65.625 66.773 65.625 113.66v23.719c-9.0156-3.2773-18.531-4.957-28.125-4.9688h-206.25c-9.5938 0.011719-19.109 1.6914-28.125 4.9688zm-37.5 234.38v-131.25c0-17.406 6.9141-34.098 19.223-46.402 12.305-12.309 28.996-19.223 46.402-19.223h206.25c17.406 0 34.098 6.9141 46.402 19.223 12.309 12.305 19.223 28.996 19.223 46.402v131.25c0 17.406-6.9141 34.098-19.223 46.402-12.305 12.309-28.996 19.223-46.402 19.223h-206.25c-17.406 0-34.098-6.9141-46.402-19.223-12.309-12.305-19.223-28.996-19.223-46.402z"/>
 <path d="m600 609.38c-15.641-0.015625-30.254 7.7695-38.969 20.754-8.7148 12.988-10.379 29.465-4.4375 43.93s18.703 25.016 34.031 28.129v66.562c0 5.1758 4.1992 9.375 9.375 9.375s9.375-4.1992 9.375-9.375v-66.562c15.328-3.1133 28.09-13.664 34.031-28.129s4.2773-30.941-4.4375-43.93c-8.7148-12.984-23.328-20.77-38.969-20.754zm0 75c-7.4609 0-14.613-2.9648-19.887-8.2383-5.2734-5.2734-8.2383-12.426-8.2383-19.887s2.9648-14.613 8.2383-19.887c5.2734-5.2734 12.426-8.2383 19.887-8.2383s14.613 2.9648 19.887 8.2383c5.2734 5.2734 8.2383 12.426 8.2383 19.887s-2.9648 14.613-8.2383 19.887c-5.2734 5.2734-12.426 8.2383-19.887 8.2383z"/>
</svg>
