<?xml version="1.0" encoding="UTF-8"?>
<svg width="1200pt" height="1200pt" version="1.1" viewBox="0 0 1200 1200" xmlns="http://www.w3.org/2000/svg">
 <path d="m599.39 836.68c-1.6875 0-3.4219-0.23438-5.1094-0.75-0.23438 0-0.46875-0.23438-0.46875-0.23438-35.906-14.156-68.625-34.172-97.641-59.344-25.641-22.453-47.625-48.328-65.672-77.391-23.203-37.594-38.812-78.141-46.125-120.61-2.9062-17.344-4.4062-31.969-4.6406-45.891v-10.266c-0.23438-20.25 1.9688-41.766 6.3281-64.219 1.9688-10.5 8.5312-14.906 13.922-16.828 42.234-16.828 85.453-33.938 127.45-50.766 21.234-8.5312 42.469-17.109 63.703-25.641 5.625-2.4375 11.719-2.4375 17.578 0 31.734 12.703 63.469 25.406 95.203 38.062 31.734 12.703 63.703 25.406 95.438 38.062 8.0625 3.4219 12.938 9.2812 14.391 17.578 3.6562 19.266 5.8594 36.609 6.3281 53.203 0.98438 32.719-2.6719 64.453-11.25 94.734-5.625 21.469-13.688 42.984-24.188 63.703-13.172 26.625-29.766 51.281-49.312 73.734-22.219 25.125-47.625 46.641-74.953 63.984-17.109 10.734-35.625 20.016-54.938 27.844-0.46875 0.23438-0.98438 0.23438-1.4531 0.46875-1.6875 0.23438-3.1875 0.46875-4.6406 0.46875zm-190.69-374.01c-4.1719 20.766-6.0938 40.781-5.8594 59.578v10.266c0.23437 12.703 1.6875 26.109 4.4062 42.234 6.8438 39.562 21.469 77.391 43.219 112.31 16.828 26.859 37.359 51.281 61.031 72 26.109 22.969 55.641 41.016 87.891 54.188 17.109-6.8438 33.188-15.141 48.328-24.656 25.641-16.125 49.078-36.141 69.844-59.812 18.047-20.766 33.703-43.969 46.125-68.625 9.75-19.266 17.109-39.328 22.453-59.344v-0.23438c7.8281-28.078 11.484-57.609 10.5-87.891-0.46875-15.375-2.4375-31.734-5.8594-49.547v-0.23437s-0.23438 0-0.23438-0.23438c-31.734-12.703-63.469-25.406-95.438-38.062-31.734-12.703-63.469-25.406-95.438-38.062-21.234 8.5312-42.703 17.109-63.984 25.641-41.484 16.359-84.703 33.703-126.94 50.531z" fill-rule="evenodd"/>
 <path d="m599.86 771.98c-1.9688 0-4.1719-0.46875-6.0938-1.2188 0 0-0.23438 0-0.23438-0.23438-24.656-10.734-47.625-25.641-68.109-44.203-23.672-21.469-42.984-46.641-57.375-74.953-13.688-26.859-22.688-55.641-26.859-85.688-1.9688-13.922-2.4375-29.062-1.6875-44.672 0.23438-5.1094 0.75-10.031 1.2188-14.906 0.23438-2.2031 0.46875-4.1719 0.75-6.3281 0.23438-4.4062 2.4375-12.188 12.469-16.125 23.203-9.2812 46.406-18.562 69.328-27.844 22.969-9.2812 46.125-18.328 69.094-27.609 0.23438-0.23438 0.75-0.23438 0.98438-0.23438 1.9688-0.46875 7.5469-2.2031 13.688 0.46875 23.203 9.2812 46.125 18.562 69.328 27.609 23.203 9.2812 46.406 18.562 69.562 27.844 6.8438 2.6719 11.25 8.2969 12.188 15.891 1.6875 11.953 2.4375 23.203 2.2031 30.984 0 28.312-3.8906 53.719-11.953 80.062-8.8125 28.547-22.453 55.172-40.781 79.125-23.203 30.75-51.984 55.406-85.453 72.984-5.3906 2.9062-10.734 5.3906-15.891 7.8281-1.9688 0.75-4.1719 1.2188-6.3281 1.2188zm-135.74-267.32c-0.23438 1.4531-0.23438 2.9062-0.46875 4.4062-0.46875 4.4062-0.98438 8.8125-1.2188 12.938-0.75 14.672 0 28.312 1.6875 40.781 3.6562 27.328 11.953 53.719 24.422 78.375 13.172 25.641 30.75 48.844 52.266 68.109 17.812 16.125 37.594 29.062 58.828 38.812 3.8906-1.6875 7.8281-3.6562 11.719-5.625 30.516-16.125 56.625-38.578 77.859-66.656 16.594-21.984 29.062-46.125 37.125-72 7.5469-24.188 10.969-47.344 10.969-73.219v-0.23438c0.23438-6.0938-0.46875-15.609-1.6875-25.406-22.453-9.0469-45.188-18.047-67.641-27.094-22.688-9.0469-45.422-18.047-68.109-27.328-22.688 9.0469-45.188 18.047-67.875 27.094-22.969 9.0469-45.422 18.047-67.875 27.094z" fill-rule="evenodd"/>
 <path d="m355.74 490.74h-134.29c-6.3281 0-11.719-5.1094-11.719-11.719v-66.141c0-6.3281 5.1094-11.719 11.719-11.719 6.6094 0 11.719 5.1094 11.719 11.719v54.422h122.81c6.3281 0 11.719 5.1094 11.719 11.719s-5.3906 11.719-11.953 11.719z" fill-rule="evenodd"/>
 <path d="m226.36 798.84c-6.3281 0-11.719-5.1094-11.719-11.719v-66.141c0-6.3281 5.1094-11.719 11.719-11.719h177.98c6.3281 0 11.719 5.1094 11.719 11.719s-5.1094 11.719-11.719 11.719h-166.26v54.422c0 6.6094-5.3906 11.719-11.719 11.719z" fill-rule="evenodd"/>
 <path d="m355.74 611.86h-134.29c-6.3281 0-11.719-5.1094-11.719-11.719s5.1094-11.719 11.719-11.719h134.29c6.3281 0 11.719 5.1094 11.719 11.719s-5.1094 11.719-11.719 11.719z" fill-rule="evenodd"/>
 <path d="m221.95 424.82c-23.672 0-42.984-19.266-42.984-42.984 0-23.672 19.266-42.984 42.984-42.984 23.672 0 42.984 19.266 42.984 42.984 0 23.672-19.266 42.984-42.984 42.984zm0-62.766c-10.969 0-19.781 8.8125-19.781 19.781s8.8125 19.781 19.781 19.781 19.781-8.8125 19.781-19.781-8.8125-19.781-19.781-19.781z" fill-rule="evenodd"/>
 <path d="m190.69 643.08c-23.672 0-42.984-19.266-42.984-42.984 0-23.672 19.266-42.984 42.984-42.984 23.672 0 42.984 19.266 42.984 42.984 0 23.672-19.266 42.984-42.984 42.984zm0-62.484c-10.969 0-19.781 8.8125-19.781 19.781s8.8125 19.781 19.781 19.781 19.781-8.8125 19.781-19.781-8.8125-19.781-19.781-19.781z" fill-rule="evenodd"/>
 <path d="m226.36 861.1c-23.672 0-42.984-19.266-42.984-42.984 0-23.672 19.266-42.984 42.984-42.984 23.672 0 42.984 19.266 42.984 42.984 0 23.672-19.266 42.984-42.984 42.984zm0-62.484c-10.969 0-19.781 8.8125-19.781 19.781s8.8125 19.781 19.781 19.781 19.781-8.8125 19.781-19.781-8.8125-19.781-19.781-19.781z" fill-rule="evenodd"/>
 <path d="m978.05 490.74h-134.29c-6.3281 0-11.719-5.1094-11.719-11.719s5.1094-11.719 11.719-11.719h122.81v-54.422c0-6.3281 5.1094-11.719 11.719-11.719s11.719 5.1094 11.719 11.719v66.141c-0.23438 6.3281-5.625 11.719-11.953 11.719z" fill-rule="evenodd"/>
 <path d="m973.4 798.84c-6.3281 0-11.719-5.1094-11.719-11.719v-54.422h-174.79c-6.3281 0-11.719-5.1094-11.719-11.719s5.1094-11.719 11.719-11.719h186.28c6.3281 0 11.719 5.1094 11.719 11.719v66.141c0 6.6094-5.1094 11.719-11.484 11.719z" fill-rule="evenodd"/>
 <path d="m978.05 611.86h-134.29c-6.3281 0-11.719-5.1094-11.719-11.719s5.1094-11.719 11.719-11.719h134.29c6.3281 0 11.719 5.1094 11.719 11.719s-5.3906 11.719-11.719 11.719z" fill-rule="evenodd"/>
 <path d="m977.58 424.82c-23.672 0-42.984-19.266-42.984-42.984 0-23.672 19.266-42.984 42.984-42.984 23.672 0 42.984 19.266 42.984 42.984 0 23.672-19.266 42.984-42.984 42.984zm0-62.766c-10.969 0-19.781 8.8125-19.781 19.781s8.8125 19.781 19.781 19.781 19.781-8.8125 19.781-19.781-8.8125-19.781-19.781-19.781z" fill-rule="evenodd"/>
 <path d="m1009.3 643.08c-23.672 0-42.984-19.266-42.984-42.984 0-23.672 19.266-42.984 42.984-42.984 23.672 0 42.984 19.266 42.984 42.984 0 23.672-19.266 42.984-42.984 42.984zm0-62.484c-10.969 0-19.781 8.8125-19.781 19.781s8.8125 19.781 19.781 19.781 19.781-8.8125 19.781-19.781-8.8125-19.781-19.781-19.781z" fill-rule="evenodd"/>
 <path d="m973.4 861.1c-23.672 0-42.984-19.266-42.984-42.984 0-23.672 19.266-42.984 42.984-42.984 23.672 0 42.984 19.266 42.984 42.984-0.23438 23.672-19.547 42.984-42.984 42.984zm0-62.484c-10.969 0-19.781 8.8125-19.781 19.781s8.8125 19.781 19.781 19.781 19.781-8.8125 19.781-19.781c-0.23438-10.969-9.0469-19.781-19.781-19.781z" fill-rule="evenodd"/>
</svg>
