<?xml version="1.0" encoding="UTF-8"?>
<svg width="1200pt" height="1200pt" version="1.1" viewBox="0 0 1200 1200" xmlns="http://www.w3.org/2000/svg">
 <path d="m482.47 523.09h167.98v-21.855h-167.98zm220.1-86.367h-220.1v21.863h220.11zm-220.1-64.5v21.863l199.97 0.003906v-21.863zm274.2 155.93 168.24-278.05-9.2656-5.5938 18.047-29.809-18.332-11.062-18.012 29.797-9.2539-5.5938-168.21 278.04zm-52.547-220.42h-221.65v21.852h221.65zm12.273 208.59-9.9492 53.293 42.602-33.527zm-295.19 129.08h354.78s25.789 0 25.789-25.812v-134.64l-38.711 64.414v49.078l-325.74 0.007813v-425.71h85.992v25.223h160.67v-25.223h79.094v230.17l38.711-64.414v-161.75s0-25.789-25.789-25.789h-92.004v-27.887h-59.484c0-11.508-9.3242-20.855-20.832-20.855-11.508 0-20.832 9.3359-20.832 20.855h-59.531v27.887h-102.12s-25.801 0-25.801 25.789v442.84c0 0.015625 0 25.824 25.812 25.824zm298.51-402.18h-237.25v21.852h237.25zm414.88 237.91c-8.3164-7.6914-26.102-18.086-43.211-13.355-4.1523 1.1406-8.2695 3.1562-12.203 6.3359-0.10938 0.097656-0.25391 0.20312-0.37109 0.30078-3.875 3.1562-8.2578 7.2734-13.008 12.191-12.742-4.1289-27.961-4.2852-40.98 7.1875-23.125 20.363-53.281 79.246-65.988 107.55-3.1914 7.0781-7.2461 15.227-11.723 23.664-3.875 7.2852-8.0898 14.762-12.312 21.949-3.7695 2.0391-7.4141 4.5117-10.848 7.5117-14.746 13.008-30.926 39.059-45.191 62.051l-3.5039 5.6055c-24.348 27.672-54.098 37.055-77.398 42.145-27.672 6.0469-78.672 29.664-102.97 51.035-22.129 19.512-70.859 75.336-76.754 97.5-1.1055 4.0664-2.543 8.5664-4.2461 13.789-2.293 7.1992-5.1602 16.008-8.1953 27.383-1.8359 6.8633-3.7422 14.688-5.7109 23.652-1.9336-8.9766-3.8398-16.789-5.6992-23.652-3.0352-11.363-5.8672-20.184-8.1953-27.383-1.6914-5.2188-3.1445-9.7188-4.2344-13.789-5.9297-22.164-54.66-77.988-76.777-97.5-24.289-21.371-75.277-44.988-102.96-51.035-23.293-5.0898-53.074-14.473-77.41-42.145l-3.4922-5.6055c-14.258-22.992-30.434-49.043-45.203-62.051-3.4062-3-7.0664-5.4727-10.824-7.5117-4.2461-7.1875-8.4492-14.664-12.312-21.949-4.4883-8.4375-8.5781-16.586-11.746-23.664-12.695-28.309-42.828-87.203-65.965-107.55-13.031-11.473-28.223-11.316-40.969-7.1875-4.7539-4.9219-9.1445-9.0234-13.031-12.191-0.097656-0.10938-0.25391-0.21484-0.32422-0.30078-3.9492-3.1797-8.0898-5.1953-12.227-6.3359-17.148-4.7266-34.906 5.6758-43.211 13.355l-5.4023 4.9805 2.9141 6.7305c0.85156 1.9805 7.9453 18.254 17.316 39.828 19.848 45.551 50.016 114.71 53.809 122.39 2.0625 4.1992 3.8633 8.8203 5.5781 13.32 2.8203 7.3203 5.5078 14.23 9.3828 19.633 5.0039 6.9492 51.926 80.629 57.023 89.039 1.0664 1.7656 2.8672 6.7695 4.4648 11.195 5.1367 14.375 11.555 32.242 23.82 39.852 7.1875 4.5234 21.254 18.719 38.988 36.707 11.93 12.121 25.488 25.836 41.23 41.027 17.832 17.207 35.062 30.047 50.258 41.398 20.375 15.18 36.469 27.191 47.16 43.848 5.5195 8.5938 7.2617 32.113 6.8398 61.141-0.19141 14.125-0.88672 29.879-1.9688 45.539 7.0312-0.50391 359.29-0.50391 366.35 0-1.0781-15.672-1.7891-31.43-1.9922-45.539-0.39453-29.016 1.332-52.535 6.8633-61.141 10.68-16.668 26.773-28.668 47.137-43.848 15.215-11.352 32.41-24.191 50.27-41.398 15.742-15.191 29.281-28.906 41.219-41.027 17.746-17.988 31.777-32.184 39.012-36.707 12.238-7.6211 18.66-25.488 23.809-39.852 1.5859-4.4141 3.3711-9.4219 4.4648-11.195 5.0742-8.4102 52.008-82.105 57.012-89.039 3.875-5.3984 6.5508-12.301 9.3711-19.633 1.7383-4.5 3.5273-9.1211 5.6172-13.32 3.7578-7.6797 33.961-76.824 53.785-122.39 9.3477-21.574 16.477-37.859 17.305-39.828l2.9648-6.7305zm-973.09 28.164c16.367 14.449 40.031 57.086 54.781 87.719 2.2305 4.5859 4.2344 8.9023 5.9766 12.793 3.7422 8.3633 9.0234 18.793 14.953 29.723l-34.598-38.977c-1.3203-1.9453-2.6758-3.9492-4.1055-6.0234-2.207-6.8398-4.7539-13.441-7.4766-19.922-11.473-27.445-26.699-51.562-41.219-69.91 4.0078 0.13281 8.0391 1.418 11.688 4.5977zm426.24 566.02h-148.8c0.38281-10.273 0.625-20.578 0.58984-29.723-0.12109-28.922-2.7227-54.047-10.176-65.652-12.719-19.824-31.031-33.48-52.211-49.285-14.699-10.969-31.367-23.375-48.254-39.695-15.551-15.012-29.016-28.656-40.871-40.656-20.172-20.473-33.504-33.961-42.758-39.73-6.168-3.8281-11.891-19.777-15.312-29.316-2.2812-6.3477-4.0938-11.352-6.2031-14.891-5.3633-8.8789-52.57-82.969-57.949-90.457-2.3398-3.2383-4.5234-8.9297-6.875-15-1.8945-4.8945-3.8633-9.9844-6.3242-14.977-3.6133-7.3789-35.531-80.473-58.945-134.32-2.9883-6.8633-5.832-13.441-8.5078-19.523 5.9766-3.7188 15.445-7.7539 22.668-1.9062 0.22656 0.16797 0.49219 0.39453 0.70703 0.60156 1.9922 1.6445 4.1523 3.5625 6.4922 5.832 2.3047 2.2305 4.7383 4.7539 7.2852 7.5352 2.2305 2.3984 4.4883 5.0273 6.8281 7.8125 7.1641 8.6055 14.762 18.949 22.094 30.59 10.895 17.398 21.121 37.754 28.105 59.699l0.44531 1.4297 0.85156 1.2227c14.746 21.828 25.094 36.086 32.172 45.312-1.2852 1.043-2.5547 2.1484-3.7422 3.3242-17.398 17.473-12.215 30.289 17.688 77.23 4.8477 9.0117 7.9688 16.609 10.465 22.727 1.6562 3.9961 3.0859 7.5 4.6445 10.586 1.1523 2.2578 2.3398 5.7734 3.4922 9.1562 2.3867 7.1406 4.6797 13.895 9.0703 18.023 0.67188 0.625 1.9062 1.7266 3.7578 3.4062 26.977 24.121 43.262 40.715 48.422 49.367 10.715 17.82 31.703 36.203 32.566 36.996l13.609-15.602c-0.25391-0.19141-15.371-13.488-25.055-26.977-1.2344-1.6914-2.3516-3.3828-3.3594-5.0625-8.3164-13.922-32.375-36.238-52.391-54.145-1.3906-1.2617-2.6055-2.3281-3.168-2.8555-1.043-1.4531-2.8086-6.6484-3.875-9.7695-1.3555-4.0938-2.7969-8.3047-4.6094-11.867-1.1992-2.3867-2.4727-5.5078-3.9609-9.1094-2.7227-6.625-6.0977-14.855-11.508-24.961l-0.19141-0.33594-0.20312-0.32422c-28.273-44.34-26.242-46.402-20.746-51.898 0.76953-0.78125 1.5703-1.4648 2.3984-2.1016 0.52734-0.38281 1.043-0.75781 1.5586-1.1055 2.3164-1.5 4.7891-2.5312 7.3086-3.1445 5.1719-1.1992 10.633-0.625 15.77 1.2344 4.2461 1.5352 8.2305 3.9492 11.629 6.9492 6.8047 5.9766 14.652 16.344 22.43 27.875 6.5156 9.6602 13.008 20.137 18.863 29.555l4.0078 6.4453 0.44531 0.70703c-0.023437-0.011719 0.51562 0.61328 0.51562 0.61328 28.754 33.012 64.633 43.945 89.125 49.297 24.719 5.375 72.023 27.266 93.695 46.344 23.41 20.629 66.602 72.719 70.453 87.301 1.2461 4.5859 2.7617 9.3242 4.5586 14.809 2.9648 9.2656 6.5508 20.41 10.32 35.797 3.1445 12.949 6.4453 28.859 9.6367 49.297 0.45703 3.0352 0.91016 6.6836 1.3555 10.836l-0.011719 46.477zm389.96-465.5c1.7539-3.8984 3.7695-8.207 5.9766-12.793 14.762-30.637 38.438-73.262 54.793-87.719 3.6367-3.1914 7.668-4.4648 11.676-4.6094-14.508 18.348-29.723 42.48-41.23 69.91-2.6992 6.4805-5.2578 13.078-7.4766 19.922-1.4297 2.0742-2.7461 4.0781-4.1055 6.0234l-34.586 38.977c5.9414-10.906 11.234-21.336 14.953-29.711zm128.62-98.184c-23.387 53.844-55.332 126.94-58.922 134.32-2.4727 4.9922-4.4297 10.078-6.3477 14.977-2.3398 6.0703-4.5469 11.762-6.8398 15-5.3984 7.4883-52.598 81.574-57.984 90.457-2.1133 3.5391-3.9102 8.543-6.1914 14.891-3.4336 9.5273-9.1562 25.488-15.277 29.316-9.3008 5.7734-22.668 19.262-42.793 39.73-11.867 12-25.297 25.645-40.871 40.656-16.895 16.309-33.574 28.727-48.254 39.695-21.191 15.816-39.492 29.461-52.199 49.285-7.4531 11.605-10.078 36.73-10.176 65.652-0.058594 9.1445 0.16797 19.453 0.5625 29.723h-148.8v-46.414c0.44531-4.1641 0.91016-7.8008 1.3789-10.836 3.168-20.438 6.4688-36.359 9.6367-49.297 3.7695-15.383 7.3203-26.531 10.32-35.797 1.7891-5.4961 3.3125-10.234 4.5352-14.809 3.8867-14.578 47.016-66.672 70.477-87.301 21.672-19.078 68.977-40.969 93.672-46.344 24.48-5.3516 60.359-16.273 89.125-49.297 0 0 0.53906-0.625 0.51562-0.61328l0.45703-0.70703 3.9961-6.4453c5.8555-9.4219 12.348-19.906 18.863-29.555 7.8125-11.531 15.648-21.898 22.43-27.875 3.3945-3 7.4023-5.3984 11.652-6.9492 5.125-1.8594 10.586-2.4375 15.742-1.2344 2.543 0.61328 5.0156 1.6328 7.3203 3.1445 0.50391 0.33594 1.0547 0.71875 1.5586 1.1055 0.82813 0.63672 1.6445 1.3203 2.4102 2.1016 5.4609 5.4961 7.5234 7.5469-20.762 51.898l-0.21484 0.32422-0.16797 0.33594c-5.4102 10.105-8.8086 18.336-11.531 24.961-1.4883 3.6016-2.7461 6.7188-3.9844 9.1094-1.7773 3.5625-3.2148 7.7773-4.5703 11.867-1.0781 3.1328-2.8203 8.3164-3.8633 9.7695-0.58984 0.52734-1.7539 1.5977-3.168 2.8555-20.039 17.902-44.09 40.223-52.379 54.145-1.0195 1.6797-2.1602 3.3711-3.3594 5.0625-9.6953 13.488-24.84 26.773-25.055 26.977l13.559 15.602c0.88672-0.79297 21.887-19.176 32.594-36.996 5.1836-8.6523 21.445-25.246 48.434-49.367 1.8711-1.6797 3.0703-2.7734 3.7422-3.4062 4.3906-4.1289 6.6836-10.883 9.0977-18.023 1.1523-3.3828 2.3398-6.8984 3.4688-9.1562 1.5586-3.0859 2.9883-6.5742 4.6211-10.586 2.543-6.1211 5.6641-13.703 10.5-22.727 29.891-46.945 35.102-59.762 17.688-77.23-1.1992-1.1875-2.4375-2.2812-3.7422-3.3242 7.1055-9.2266 17.461-23.484 32.184-45.312l0.82813-1.2227 0.48047-1.4297c6.9844-21.949 17.195-42.301 28.105-59.699 7.2969-11.641 14.93-21.996 22.066-30.59 2.3516-2.7852 4.6445-5.4102 6.8516-7.8125 2.5195-2.7852 4.957-5.3047 7.2734-7.5352 2.3281-2.2695 4.4883-4.1875 6.5039-5.832 0.21484-0.20313 0.48047-0.43359 0.68359-0.60156 7.2344-5.8438 16.68-1.8125 22.656 1.9062-2.668 6.0195-5.5352 12.586-8.5352 19.461z"/>
</svg>
