<?xml version="1.0" encoding="UTF-8"?>
<svg width="1200pt" height="1200pt" version="1.1" viewBox="0 0 1200 1200" xmlns="http://www.w3.org/2000/svg">
 <path d="m114.55 172.73-47.273-52.727c-5.4531-7.2734-5.4531-16.363 0-23.637l45.453-52.727c7.2734-7.2734 18.184-9.0898 25.453-1.8164 7.2734 7.2734 9.0898 18.184 1.8164 25.453l-18.18 21.816h85.453c10.91 0 18.184 7.2734 18.184 18.184v152.73h190.91c10.91 0 18.184 9.0898 18.184 18.184v92.727h-36.363v-74.547h-190.91c-9.0898 0-18.184-7.2734-18.184-18.184v-152.73h-67.273l20 21.816c7.2734 7.2734 5.4531 18.184-1.8164 25.453-7.2734 7.2773-20 7.2773-25.453 0.003906z"/>
 <path d="m294.55 121.82c-7.2734-7.2734-9.0898-18.184-1.8164-25.453l45.453-52.727c7.2695-7.2734 21.816-7.2734 29.09 0l45.453 52.727c7.2734 7.2734 5.4531 18.184-1.8164 25.453-7.2734 7.2734-18.184 5.4531-25.453-1.8164l-14.547-16.363v67.273h172.73c10.91 0 18.184 9.0898 18.184 18.184v183.64h-36.363v-165.45h-172.73c-9.0898 0-18.184-9.0898-18.184-18.184v-85.457l-14.547 16.363c-5.4531 7.2734-18.184 7.2734-25.453 1.8164z"/>
 <path d="m689.09 372.73h-36.363v-181.82c0-9.0898 7.2734-18.184 18.184-18.184h123.64v-89.09l-14.547 16.363c-7.2734 7.2734-18.184 9.0898-25.453 1.8164-7.2734-7.2734-9.0898-18.184-1.8164-25.453l45.453-52.727c7.2734-7.2734 20-7.2734 27.273 0l47.27 52.727c7.2734 7.2734 5.4531 18.184-1.8164 25.453-7.2734 7.2734-20 7.2734-25.457-1.8164l-14.547-16.363v105.45c0 10.91-7.2734 18.184-18.184 18.184h-123.64z"/>
 <path d="m1049.1 423.64c36.363 156.36 1.8164 321.82-90.91 443.64-110.91 145.45-94.547 287.27-96.363 296.36 0 9.0898-9.0898 18.184-18.184 18.184l-505.45-0.003906c-9.0898 0-18.184-9.0898-18.184-18.184v-189.09h-74.547c-23.637 0-43.637-21.816-43.637-45.453v-94.547c0-9.0898-5.4531-14.547-10.91-14.547h-36.363c-12.727 0-23.637-7.2734-30.91-18.184-7.2734-12.727-9.0898-27.273-1.8164-40 41.816-96.363 80-132.73 80-212.73 0-41.816 5.4531-83.637 14.547-123.64 1.8164-9.0898 9.0898-14.547 18.184-14.547h796.36c9.0898-1.8164 16.363 3.6406 18.18 12.73z"/>
 <path d="m1132.7 120-45.453 52.727c-7.2734 7.2734-18.184 9.0898-25.453 1.8164-7.2734-7.2734-9.0898-18.184-1.8164-25.453l20-21.816h-65.453v152.73c0 10.91-7.2734 18.184-18.184 18.184h-172.73v74.547h-36.363v-92.727c0-9.0898 9.0898-18.184 18.184-18.184h172.73l-0.003906-154.55c0-10.91 7.2734-18.184 18.184-18.184h83.637l-20-21.816c-7.2734-7.2734-5.4531-18.184 1.8164-25.453 7.2734-7.2734 20-5.4531 25.453 1.8164l45.453 52.727c5.457 5.4531 5.457 16.363 0 23.637z"/>
</svg>
